{"glyphs":{"0":{"ha":507,"x_min":29,"x_max":473,"o":"m 189 467 q 187 496 187 477 q 218 580 187 547 q 298 614 250 614 q 424 538 374 614 q 473 335 473 463 q 408 82 473 178 q 244 -14 342 -14 q 90 76 151 -14 q 29 301 29 165 q 237 657 29 553 l 248 640 q 90 342 90 538 q 148 124 90 212 q 282 36 206 36 q 390 105 347 36 q 432 288 432 174 q 385 479 432 406 q 277 553 338 553 q 228 532 246 553 q 210 478 210 512 l 210 471 l 189 467 z "},"1":{"ha":507,"x_min":85,"x_max":293,"o":"m 293 11 l 221 -28 l 221 525 q 98 471 165 486 l 85 496 q 283 667 223 538 l 293 660 l 293 11 z "},"2":{"ha":507,"x_min":46,"x_max":469,"o":"m 469 140 q 401 22 455 65 q 290 -21 348 -21 q 187 18 232 -21 q 135 41 161 41 q 72 -18 83 41 l 53 -18 q 124 161 56 82 q 250 279 191 240 q 335 364 309 318 q 361 454 361 410 q 320 562 361 515 q 221 610 280 610 q 126 573 164 610 q 87 481 87 537 q 108 415 87 440 q 160 390 129 390 q 206 408 188 390 q 224 450 224 427 l 224 463 l 239 468 q 249 425 249 450 q 221 358 249 383 q 150 334 194 334 q 75 367 104 334 q 46 453 46 400 q 106 591 46 534 q 256 647 167 647 q 387 598 332 647 q 441 479 441 549 q 286 263 441 366 q 100 62 130 161 q 183 90 136 90 q 272 72 218 90 q 343 54 327 54 q 402 74 378 54 q 452 149 426 93 l 469 140 z "},"3":{"ha":507,"x_min":39,"x_max":468,"o":"m 332 335 q 468 183 468 295 q 394 42 468 106 q 222 -22 320 -22 q 91 23 143 -22 q 39 127 39 69 q 67 200 39 170 q 136 231 96 231 q 240 154 206 231 l 224 142 q 163 174 201 174 q 115 153 135 174 q 94 104 94 133 q 134 36 94 66 q 228 7 174 7 q 345 56 296 7 q 393 174 393 105 q 357 272 393 230 q 282 314 321 314 q 252 304 267 314 q 218 294 237 294 q 197 306 197 294 q 278 334 197 331 q 374 481 374 391 q 335 573 374 536 q 236 610 296 610 q 145 576 181 610 q 109 498 109 543 q 130 449 109 471 q 176 427 151 427 q 241 478 220 427 l 257 471 q 155 376 227 376 q 91 401 116 376 q 66 469 66 427 q 127 594 66 541 q 273 647 187 647 q 393 608 348 647 q 439 504 439 568 q 332 335 439 408 z "},"4":{"ha":507,"x_min":7,"x_max":488,"o":"m 488 256 q 355 132 463 160 l 355 1 l 283 -37 l 283 138 q 129 171 172 171 q 18 127 62 171 l 7 138 q 233 614 164 370 q 350 682 281 637 l 354 672 q 235 446 303 552 l 83 210 q 170 221 121 221 q 283 204 220 221 l 283 489 l 355 526 l 355 191 q 472 262 433 191 l 488 256 z "},"5":{"ha":507,"x_min":41,"x_max":453,"o":"m 132 363 q 283 422 204 422 q 405 371 357 422 q 453 244 453 320 q 383 65 453 142 q 212 -12 313 -12 q 90 29 138 -12 q 41 126 41 70 q 71 202 41 171 q 146 233 100 233 q 244 165 203 233 l 228 154 q 170 183 201 183 q 118 162 138 183 q 97 107 97 140 q 132 43 97 69 q 218 17 167 17 q 335 70 289 17 q 382 204 382 123 q 343 324 382 276 q 248 372 304 372 q 118 309 178 372 l 96 317 q 117 539 117 427 l 114 648 l 131 664 q 281 586 194 586 q 410 663 361 586 l 432 652 q 241 529 368 529 q 147 550 189 529 q 132 363 146 495 z "},"6":{"ha":507,"x_min":45,"x_max":458,"o":"m 174 218 q 153 282 153 248 q 196 375 153 337 q 301 414 239 414 q 414 363 370 414 q 458 231 458 312 q 397 56 458 128 q 249 -16 336 -16 q 102 57 159 -16 q 45 250 45 130 q 135 531 45 414 q 343 648 225 648 q 404 634 382 648 q 427 596 427 620 q 408 555 427 573 q 366 538 389 538 q 349 541 359 538 l 347 549 q 371 585 371 563 q 319 619 371 619 q 171 524 237 619 q 106 298 106 428 q 154 109 106 182 q 282 35 203 35 q 380 78 343 35 q 416 192 416 121 q 376 307 416 262 q 278 353 335 353 q 208 326 236 353 q 180 260 180 298 q 186 228 180 237 l 174 218 z "},"7":{"ha":507,"x_min":58,"x_max":498,"o":"m 498 632 q 427 526 494 606 q 269 283 316 392 q 221 126 221 174 q 237 74 221 96 q 278 52 252 52 q 342 110 315 52 l 353 106 q 317 11 349 47 q 243 -25 286 -25 q 172 11 199 -25 q 146 104 146 46 q 292 408 146 237 l 416 555 q 387 549 412 555 q 335 542 361 542 q 256 551 306 542 q 187 559 207 559 q 127 545 151 559 q 102 524 103 531 l 86 446 l 58 450 l 97 657 l 125 653 l 111 579 q 260 635 191 635 q 334 616 276 635 q 419 599 393 599 q 485 639 446 599 l 498 632 z "},"8":{"ha":507,"x_min":46,"x_max":467,"o":"m 323 336 q 435 261 403 297 q 467 175 467 224 q 406 36 467 92 q 249 -20 345 -20 q 102 31 159 -20 q 46 154 46 81 q 175 328 46 260 q 95 400 114 370 q 75 469 75 430 q 136 598 75 546 q 285 650 197 650 q 407 610 359 650 q 454 510 454 571 q 426 416 454 456 q 323 336 397 377 m 292 353 q 399 485 399 393 q 360 578 399 544 q 254 612 321 612 q 164 584 197 612 q 131 507 131 555 q 292 353 131 412 m 205 310 q 107 174 107 270 q 153 57 107 104 q 272 9 199 9 q 372 46 334 9 q 411 136 411 83 q 389 205 411 176 q 289 271 367 234 l 205 310 z "},"9":{"ha":507,"x_min":49,"x_max":458,"o":"m 340 387 l 342 367 q 302 265 342 307 q 204 224 263 224 q 94 277 140 224 q 49 412 49 331 q 113 582 49 512 q 258 652 177 652 q 400 574 341 652 q 458 376 458 496 q 368 103 458 222 q 165 -17 277 -17 q 96 3 123 -17 q 69 52 69 22 q 134 109 69 106 l 138 98 q 125 75 125 96 q 143 36 125 52 q 189 21 161 21 q 337 116 271 21 q 403 342 403 211 q 349 524 403 453 q 218 595 295 595 q 125 556 160 595 q 90 453 90 517 q 133 331 90 381 q 228 281 176 281 q 292 309 265 281 q 322 387 319 338 l 340 387 z "}," ":{"ha":347,"x_min":0,"x_max":0,"o":""},"!":{"ha":390,"x_min":138,"x_max":262,"o":"m 262 789 q 227 543 230 691 l 216 146 l 186 146 l 175 534 q 138 787 171 666 q 204 802 172 802 q 262 789 229 802 m 261 28 l 203 -39 l 146 28 l 201 98 l 261 28 z "},"\"":{"ha":361,"x_min":49,"x_max":314,"o":"m 79 607 l 54 812 q 49 879 49 860 q 61 923 49 905 q 92 940 73 940 q 134 879 134 940 q 127 810 134 850 l 100 607 l 79 607 m 261 607 l 236 812 q 229 879 229 871 q 241 923 229 906 q 272 940 253 940 q 303 924 292 940 q 314 879 314 907 q 309 810 314 850 l 281 607 l 261 607 z "},"#":{"ha":854,"x_min":57,"x_max":796,"o":"m 796 143 l 583 143 l 530 -122 l 482 -122 l 538 143 l 240 143 l 187 -122 l 139 -122 l 195 143 l 57 143 l 57 189 l 204 189 l 260 456 l 57 456 l 57 501 l 271 501 l 326 766 l 372 766 l 317 501 l 612 501 l 667 766 l 714 766 l 659 501 l 796 501 l 796 456 l 648 456 l 595 189 l 796 189 l 796 143 m 603 456 l 307 456 l 252 189 l 547 189 l 603 456 z "},"$":{"ha":507,"x_min":41,"x_max":447,"o":"m 257 372 q 410 282 374 319 q 447 187 447 245 q 397 58 447 115 q 257 -14 347 1 l 257 -106 l 224 -106 l 224 -14 q 88 33 135 -7 q 41 129 41 73 q 127 214 41 199 l 135 201 q 97 138 97 179 q 134 62 97 94 q 224 25 170 30 l 224 301 q 94 380 130 341 q 57 476 57 420 q 101 587 57 540 q 224 646 145 634 l 224 714 l 257 714 l 257 647 q 375 615 333 645 q 416 543 416 586 q 390 488 416 510 q 325 465 364 465 l 318 465 l 315 481 q 355 538 355 498 q 329 592 355 568 q 257 621 303 617 l 257 372 m 224 387 l 224 618 q 142 578 171 608 q 113 509 113 547 q 224 387 113 440 m 257 22 q 357 69 321 31 q 392 153 392 107 q 257 286 392 235 l 257 22 z "},"%":{"ha":926,"x_min":104,"x_max":821,"o":"m 253 657 q 359 606 317 657 q 401 481 401 555 q 359 355 401 406 q 253 304 317 304 q 147 356 189 304 q 104 481 104 407 q 146 606 104 555 q 253 657 189 657 m 253 326 q 321 366 296 326 q 346 481 346 406 q 321 595 346 555 q 253 635 296 635 q 185 595 210 635 q 160 481 160 555 q 184 366 160 406 q 253 326 209 326 m 633 656 l 332 -12 l 293 -12 l 596 657 l 633 656 m 672 340 q 779 290 736 340 q 821 164 821 239 q 779 39 821 89 q 672 -11 736 -11 q 566 40 608 -11 q 524 164 524 90 q 566 290 524 239 q 672 340 608 340 m 672 11 q 740 51 715 11 q 765 164 765 90 q 741 278 765 238 q 672 318 716 318 q 604 278 629 318 q 579 164 579 238 q 604 50 579 90 q 672 11 628 11 z "},"&":{"ha":897,"x_min":126,"x_max":806,"o":"m 772 446 q 806 392 806 427 q 789 353 806 369 q 746 338 773 338 q 671 351 719 338 q 603 367 623 366 q 667 239 667 313 q 583 63 667 139 q 386 -14 498 -14 q 202 60 277 -14 q 126 239 126 134 q 176 385 126 323 q 321 473 226 447 q 171 614 171 513 q 241 747 171 690 q 408 804 312 804 q 528 787 453 804 q 628 771 602 771 q 705 793 671 771 l 717 775 q 576 714 658 714 q 460 740 531 714 q 359 766 390 766 q 278 729 310 766 q 245 632 245 691 q 285 537 245 572 q 393 503 325 503 q 463 511 431 503 l 467 489 q 276 408 342 473 q 211 240 211 342 q 272 84 211 144 q 419 24 334 24 q 555 79 498 24 q 611 216 611 134 q 582 316 611 279 q 501 353 552 353 q 436 331 461 353 q 411 273 411 309 q 425 237 411 250 q 461 224 439 224 q 507 245 488 224 l 515 227 q 440 167 484 167 q 387 191 409 167 q 364 250 364 215 q 418 351 364 313 q 567 390 471 390 l 699 383 q 768 419 768 383 q 762 435 768 429 l 772 446 z "},"'":{"ha":187,"x_min":52,"x_max":136,"o":"m 82 607 l 57 812 q 52 879 52 860 q 63 923 52 905 q 94 940 75 940 q 136 879 136 940 q 131 810 136 850 l 103 607 l 82 607 z "},"(":{"ha":261,"x_min":36,"x_max":248,"o":"m 248 892 q 102 382 102 659 q 232 -94 102 104 l 211 -113 q 36 387 36 102 q 227 907 36 678 l 248 892 z "},")":{"ha":261,"x_min":12,"x_max":224,"o":"m 33 907 q 224 387 224 676 q 49 -113 224 102 l 28 -94 q 158 382 158 104 q 12 892 158 659 l 33 907 z "},"*":{"ha":507,"x_min":83,"x_max":418,"o":"m 418 575 q 379 507 413 532 q 278 596 322 564 l 262 586 q 288 456 261 563 q 248 449 267 449 q 208 456 228 449 q 233 587 231 539 l 224 595 q 127 505 184 566 q 83 571 87 529 q 211 616 136 583 l 215 633 q 86 681 149 666 q 125 749 86 728 q 227 657 172 696 l 237 665 q 210 798 231 713 q 250 806 229 806 q 288 798 273 806 q 265 665 271 732 l 281 653 q 378 745 365 728 q 418 681 412 726 q 293 629 352 663 l 293 619 q 418 575 377 583 z "},"+":{"ha":854,"x_min":89,"x_max":764,"o":"m 764 296 l 447 296 l 447 -16 l 403 -16 l 403 296 l 89 296 l 89 342 l 403 342 l 403 657 l 447 657 l 447 342 l 764 342 l 764 296 z "},",":{"ha":261,"x_min":45,"x_max":191,"o":"m 191 33 q 58 -134 149 -70 l 45 -118 q 115 -21 87 -75 l 66 32 l 126 100 l 191 33 z "},"-":{"ha":261,"x_min":36,"x_max":233,"o":"m 233 146 l 36 146 l 36 196 l 233 196 l 233 146 z "},".":{"ha":261,"x_min":74,"x_max":196,"o":"m 196 32 l 135 -33 l 74 29 l 135 97 l 196 32 z "},"/":{"ha":681,"x_min":81,"x_max":600,"o":"m 600 892 l 127 -100 l 81 -100 l 553 892 l 600 892 z "},":":{"ha":261,"x_min":75,"x_max":201,"o":"m 201 258 l 136 193 l 75 260 l 139 328 l 201 258 m 200 26 l 136 -39 l 75 33 l 139 100 l 200 26 z "},";":{"ha":261,"x_min":53,"x_max":203,"o":"m 201 260 l 138 192 l 74 256 l 138 328 l 201 260 m 203 33 q 64 -136 153 -66 l 53 -121 q 114 -16 114 -41 q 74 32 114 -1 l 139 100 l 203 33 z "},"<":{"ha":854,"x_min":90,"x_max":762,"o":"m 762 12 l 90 298 l 90 339 l 762 624 l 762 574 l 149 319 l 762 62 l 762 12 z "},"=":{"ha":854,"x_min":90,"x_max":762,"o":"m 762 446 l 90 446 l 90 492 l 762 492 l 762 446 m 762 154 l 90 154 l 90 200 l 762 200 l 762 154 z "},">":{"ha":854,"x_min":90,"x_max":762,"o":"m 762 297 l 90 12 l 90 62 l 703 317 l 90 574 l 90 624 l 762 338 l 762 297 z "},"?":{"ha":593,"x_min":163,"x_max":553,"o":"m 336 647 l 338 629 q 313 566 338 591 q 250 542 288 542 q 187 570 211 542 q 163 637 163 597 q 218 756 163 707 q 363 804 273 804 q 499 760 446 804 q 553 650 553 715 q 529 557 553 604 q 422 442 505 510 q 319 340 338 374 q 300 272 300 305 q 314 227 300 246 q 349 208 329 208 q 390 235 368 208 l 404 227 q 376 177 397 195 q 329 158 355 158 q 277 182 296 158 q 258 248 258 205 q 278 327 258 286 q 363 434 298 368 q 450 534 429 500 q 472 619 472 569 q 431 725 472 684 q 326 766 389 766 q 239 738 275 766 q 204 667 204 710 q 221 617 204 636 q 265 599 238 599 q 326 646 307 599 l 336 647 m 380 32 l 323 -36 l 267 36 l 322 106 l 380 32 z "},"@":{"ha":1274,"x_min":77,"x_max":1236,"o":"m 1236 97 q 1009 -196 1166 -89 q 661 -302 852 -302 q 241 -134 406 -302 q 77 300 77 34 q 160 628 77 477 q 390 864 243 779 q 711 950 537 950 q 1054 824 923 950 q 1185 492 1185 697 q 1077 156 1185 299 q 829 14 969 14 q 725 102 725 14 q 749 231 725 129 q 586 60 642 101 q 476 20 530 20 q 387 59 422 20 q 353 168 353 98 q 413 379 353 269 q 563 563 473 490 q 722 636 652 636 q 790 615 762 636 q 838 522 819 594 l 864 619 l 937 629 l 846 322 q 796 109 796 157 q 816 60 796 78 q 867 43 836 43 q 1064 177 965 43 q 1162 489 1162 311 q 1037 807 1162 686 q 711 928 912 928 q 408 842 547 928 q 193 594 269 755 q 118 264 118 433 q 271 -123 118 34 q 663 -281 423 -281 q 995 -178 843 -281 q 1214 97 1147 -76 l 1236 97 m 525 77 q 654 144 583 77 q 772 314 724 212 q 819 505 819 417 q 792 588 819 556 q 720 619 765 619 q 591 550 659 619 q 479 373 524 480 q 433 182 433 265 q 458 105 433 134 q 525 77 484 77 z "},"A":{"ha":708,"x_min":47,"x_max":774,"o":"m 478 135 q 250 -14 376 -14 q 104 60 160 -14 q 47 250 47 134 q 130 565 47 408 q 342 819 212 722 q 597 916 473 916 q 726 862 678 916 q 774 717 774 808 q 564 380 774 505 l 564 102 q 569 48 564 62 q 596 35 574 35 q 714 123 646 35 l 736 106 q 651 12 689 39 q 571 -16 613 -16 q 501 9 525 -16 q 478 135 477 35 m 564 418 q 679 523 639 456 q 718 672 718 591 q 668 808 718 758 q 534 859 618 859 q 257 698 382 859 q 132 314 132 537 q 176 117 132 192 q 290 43 220 43 q 332 49 311 43 q 373 68 353 56 q 412 100 393 81 q 454 155 431 119 q 478 201 478 191 l 478 349 q 439 346 455 346 q 327 388 368 346 q 285 498 285 429 q 326 630 285 566 q 439 728 367 694 l 449 713 q 346 524 346 627 q 379 426 346 463 q 468 390 412 390 l 478 390 l 478 664 l 564 710 l 564 418 z "},"B":{"ha":940,"x_min":62,"x_max":871,"o":"m 697 486 q 871 256 871 437 q 811 62 871 144 q 671 -20 751 -20 q 545 57 583 -20 q 611 96 557 69 q 618 86 616 90 q 694 18 633 18 q 777 67 743 18 q 810 197 810 117 q 752 367 810 302 q 599 431 694 431 l 596 443 q 689 519 654 465 q 724 633 724 574 q 656 783 724 721 q 492 844 589 844 q 230 739 347 844 q 114 500 114 633 q 143 397 114 436 q 218 358 172 358 q 319 435 273 358 l 334 427 q 272 334 313 366 q 182 301 231 301 q 95 342 128 301 q 62 447 62 382 q 130 659 62 552 q 308 830 197 765 q 542 895 420 895 q 719 836 652 895 q 785 681 785 777 q 697 486 785 572 m 590 755 q 543 596 543 683 q 557 454 543 550 q 572 310 572 359 q 490 73 572 169 q 286 -22 407 -22 q 155 24 208 -22 q 93 154 103 70 q 182 184 130 172 l 184 175 q 170 119 170 149 q 205 41 170 75 q 296 7 241 7 q 435 78 378 7 q 492 268 492 149 q 485 378 492 305 q 478 488 478 452 q 579 766 478 663 l 590 755 z "},"C":{"ha":652,"x_min":47,"x_max":714,"o":"m 690 123 q 575 13 640 46 q 408 -21 509 -21 q 146 79 245 -21 q 47 343 47 180 q 118 612 47 481 q 302 822 188 743 q 532 901 416 901 q 665 854 616 901 q 714 726 714 808 q 628 512 714 607 q 441 418 542 418 q 358 449 391 418 q 326 530 326 480 q 416 681 326 610 l 431 664 q 382 564 382 632 q 411 495 382 522 q 484 468 439 468 q 605 527 552 468 q 659 671 659 587 q 608 802 659 752 q 476 851 558 851 q 233 723 339 851 q 127 415 127 595 q 222 139 127 250 q 461 29 317 29 q 581 55 533 29 q 668 140 629 80 l 690 123 z "},"D":{"ha":970,"x_min":78,"x_max":922,"o":"m 382 553 q 329 420 372 466 q 221 374 285 374 q 118 421 159 374 q 78 541 78 469 q 196 789 78 683 q 492 896 313 896 q 803 772 683 896 q 922 450 922 649 q 810 120 922 256 q 559 -16 699 -16 q 451 22 513 -16 q 346 61 390 61 q 236 -16 288 61 l 220 -5 q 329 119 246 60 q 440 226 412 178 q 468 353 468 273 q 461 460 468 392 q 454 558 454 528 q 486 694 454 642 q 589 778 518 747 l 597 762 q 525 619 525 711 q 536 513 525 589 q 549 395 549 437 q 506 245 549 309 q 354 111 463 180 l 387 113 q 522 77 465 113 q 632 41 581 41 q 788 142 718 41 q 857 392 857 243 q 735 719 857 587 q 437 851 612 851 q 214 772 302 851 q 125 581 125 693 q 159 480 125 519 q 244 441 193 441 q 364 557 332 441 l 382 553 z "},"E":{"ha":724,"x_min":47,"x_max":717,"o":"m 717 850 q 561 794 652 794 q 439 819 511 794 q 328 844 368 844 q 229 804 266 844 q 192 696 192 763 q 233 583 192 626 q 335 541 273 541 q 411 551 361 541 l 415 524 q 213 432 286 507 q 140 249 140 357 q 201 85 140 147 q 357 24 261 24 q 530 95 457 24 q 603 256 603 166 q 566 361 603 317 q 479 406 530 406 q 406 375 438 406 q 374 307 374 345 q 390 261 374 280 q 428 243 406 243 q 473 268 454 243 l 489 260 q 407 186 473 186 q 352 210 373 186 q 332 273 332 234 q 389 396 332 342 q 524 450 446 450 q 626 409 587 450 q 664 307 664 368 q 571 87 664 187 q 335 -14 477 -14 q 127 61 207 -14 q 47 243 47 135 q 104 398 47 327 q 265 507 161 469 q 111 664 111 541 q 205 828 111 755 q 416 901 299 901 q 538 876 465 901 q 648 851 612 851 q 707 868 675 851 l 717 850 z "},"F":{"ha":766,"x_min":65,"x_max":786,"o":"m 786 850 q 648 800 730 800 q 604 803 616 800 q 549 672 549 760 q 581 536 549 602 q 703 579 654 579 q 743 571 719 579 l 745 554 q 734 486 745 545 q 726 484 732 486 q 718 482 720 482 l 715 482 q 694 516 711 503 q 659 529 677 529 q 591 504 624 529 q 629 377 623 410 q 635 314 635 345 q 534 73 635 170 q 286 -24 434 -24 q 125 30 185 -24 q 65 170 65 84 q 142 335 65 267 q 319 404 218 404 q 407 374 372 404 q 443 301 443 345 q 392 202 443 246 q 268 158 341 158 l 253 158 l 253 174 q 372 279 372 195 q 346 343 372 319 q 275 367 319 367 q 165 321 210 367 q 121 204 121 275 q 179 67 121 121 q 326 14 238 14 q 499 79 425 14 q 574 239 574 144 q 549 359 574 286 l 519 443 q 473 378 490 421 l 452 395 q 510 478 477 439 q 488 614 488 570 q 578 807 488 731 q 396 829 477 829 q 263 785 315 829 q 212 676 212 741 q 237 608 212 635 q 293 582 262 582 q 337 599 316 582 q 366 644 359 616 l 379 644 l 380 625 q 351 547 380 581 q 279 514 322 514 q 199 551 232 514 q 165 646 165 588 q 255 816 165 746 q 482 886 345 886 q 629 868 547 886 q 729 850 712 850 q 777 869 756 850 l 786 850 z "},"G":{"ha":724,"x_min":74,"x_max":654,"o":"m 654 526 q 593 440 593 494 q 611 355 593 416 q 629 253 629 294 q 545 62 629 139 q 328 -16 460 -16 q 74 160 123 -16 q 167 199 105 183 l 171 186 q 168 155 168 173 q 217 54 168 94 q 340 14 267 14 q 489 73 429 14 q 549 220 549 132 q 540 300 549 247 q 532 375 532 354 q 546 441 532 408 q 307 332 422 332 q 159 388 214 332 q 103 538 103 444 q 217 792 103 678 q 479 907 332 907 q 595 871 552 907 q 639 775 639 836 q 579 632 639 694 q 446 571 520 571 q 381 593 406 571 q 357 650 357 614 q 454 777 357 732 l 464 762 q 418 677 418 723 q 435 627 418 646 q 482 608 453 608 q 557 645 523 608 q 591 732 591 682 q 548 830 591 791 q 435 869 504 869 q 257 782 331 869 q 183 574 183 695 q 227 433 183 485 q 342 382 271 382 q 433 399 387 382 q 545 475 480 416 q 643 545 611 534 l 654 526 z "},"H":{"ha":1114,"x_min":98,"x_max":1153,"o":"m 1153 123 q 945 -21 1062 -21 q 789 71 847 -21 q 732 328 732 162 q 737 461 732 374 q 696 457 720 457 q 663 463 681 457 q 636 469 646 469 q 618 467 631 469 q 631 328 631 406 q 545 80 631 179 q 326 -18 460 -18 q 98 113 162 -18 l 171 176 l 180 170 q 350 11 216 11 q 495 76 441 11 q 550 252 550 141 q 541 359 550 277 q 533 500 533 441 q 590 785 533 675 q 550 767 582 782 q 494 753 519 753 q 388 804 441 753 q 290 854 335 854 q 197 806 240 854 q 154 697 154 758 q 186 611 154 645 q 264 576 218 576 q 327 596 298 576 q 372 653 357 616 l 390 647 q 329 550 373 585 q 237 515 285 515 q 149 555 184 515 q 113 653 113 595 q 179 826 113 748 q 332 904 246 904 q 463 842 402 904 q 545 798 507 798 q 612 832 581 798 l 668 896 l 689 882 q 595 636 595 790 q 612 498 595 568 q 669 518 644 518 q 746 494 699 518 q 868 793 781 685 q 1054 901 956 901 q 1145 863 1116 901 l 1076 793 q 1004 857 1046 857 q 872 741 938 857 q 807 418 807 625 q 858 140 807 244 q 983 36 909 36 q 1132 140 1065 36 l 1153 123 z "},"I":{"ha":724,"x_min":47,"x_max":682,"o":"m 541 671 q 600 686 577 686 q 660 662 637 686 q 682 600 682 638 q 587 440 682 510 q 627 281 627 356 q 535 74 627 162 q 309 -14 444 -14 q 135 37 204 -14 q 47 182 66 87 q 147 215 83 208 l 151 203 q 142 163 142 187 q 196 58 142 101 q 326 16 250 16 q 486 82 421 16 q 551 241 551 148 q 503 403 551 309 q 441 399 475 399 q 272 456 336 399 q 207 603 207 513 q 325 813 207 724 q 650 903 442 903 l 656 886 q 536 809 578 863 q 494 694 494 756 q 574 467 494 613 q 635 574 635 510 q 615 633 635 610 q 572 657 595 657 q 543 653 564 657 l 541 671 m 579 875 q 361 793 435 859 q 288 623 288 728 q 335 481 288 535 q 460 428 382 428 l 486 429 q 433 631 433 553 q 579 875 433 778 z "},"J":{"ha":652,"x_min":-14,"x_max":643,"o":"m 471 590 q 528 607 494 607 q 611 571 578 607 q 643 478 643 536 q 472 262 643 328 q 513 -11 513 109 q 419 -297 513 -189 q 193 -406 325 -406 q 44 -352 102 -406 q -14 -214 -14 -298 q 35 -93 -14 -142 q 146 -45 83 -45 q 239 -80 199 -45 q 278 -164 278 -115 q 247 -243 278 -210 q 161 -277 215 -277 l 155 -257 q 216 -179 216 -241 q 191 -118 216 -142 q 127 -94 166 -94 q 50 -131 81 -94 q 18 -221 18 -168 q 70 -332 18 -287 q 197 -376 121 -376 q 364 -292 300 -376 q 428 -64 428 -208 q 386 244 428 29 q 188 307 256 245 q 119 481 119 368 q 262 768 119 638 q 595 907 406 899 l 602 889 q 435 555 435 805 q 468 289 435 444 q 552 352 522 307 q 582 454 582 398 q 556 543 582 507 q 494 578 530 578 l 478 578 l 471 590 m 534 876 q 292 735 383 849 q 200 486 200 621 q 382 273 200 290 q 364 467 364 412 q 534 876 364 723 z "},"K":{"ha":1129,"x_min":72,"x_max":1196,"o":"m 1196 842 l 1131 777 l 1121 783 q 1093 850 1121 822 q 1035 879 1065 879 q 965 850 998 879 q 882 695 933 821 q 739 439 808 513 q 797 396 772 422 q 848 303 823 370 l 907 159 q 945 73 939 83 q 968 52 951 64 q 1006 40 986 40 q 1139 140 1068 40 l 1161 123 q 961 -17 1070 -17 q 862 42 903 -17 q 790 236 822 100 q 710 414 759 372 q 652 395 679 395 l 639 396 l 639 340 q 554 91 639 195 q 347 -14 469 -14 q 138 107 217 -14 l 218 182 l 228 174 q 225 157 225 170 q 263 53 225 91 q 364 16 302 16 q 504 83 449 16 q 558 275 558 150 q 542 429 558 323 q 526 597 526 535 q 575 800 526 713 q 469 758 519 758 q 347 810 407 758 q 241 854 296 854 q 149 811 187 854 q 110 705 110 768 q 143 615 110 650 q 228 581 176 581 q 330 631 290 581 l 342 623 q 212 519 304 519 q 111 563 150 519 q 72 676 72 606 q 142 843 72 774 q 293 911 212 911 q 427 850 358 911 q 514 806 477 806 q 625 890 567 806 l 643 878 q 582 686 582 794 q 603 555 582 635 q 632 439 625 475 q 685 449 654 449 l 708 447 q 757 509 734 472 q 810 636 780 545 q 869 780 840 727 q 950 871 899 833 q 1059 908 1002 908 q 1196 842 1134 908 m 681 427 q 639 416 648 427 q 653 414 648 414 q 681 427 668 414 z "},"L":{"ha":796,"x_min":66,"x_max":854,"o":"m 424 103 q 479 211 479 159 q 453 306 479 250 q 372 428 427 362 q 298 541 317 494 q 279 633 279 587 q 372 823 279 739 q 604 908 465 908 q 786 851 717 908 q 854 704 854 795 q 793 555 854 618 q 652 492 732 492 q 550 526 588 492 q 513 616 513 561 q 600 743 513 701 l 610 729 q 564 640 564 692 q 598 563 564 596 q 679 529 632 529 q 764 569 730 529 q 799 667 799 608 q 729 810 799 749 q 559 871 659 871 q 409 817 468 871 q 350 690 350 763 q 439 500 350 604 q 541 269 541 382 q 460 90 541 178 q 660 36 588 36 q 814 140 741 36 l 835 123 q 734 20 790 53 q 589 -14 677 -14 q 386 39 517 -14 q 196 -18 285 -18 q 104 3 141 -18 q 66 57 66 25 q 113 119 66 93 q 227 144 160 144 q 424 103 295 144 m 349 53 q 184 107 239 107 q 114 71 114 107 q 146 33 114 50 q 220 16 178 16 q 349 53 279 16 z "},"M":{"ha":1360,"x_min":75,"x_max":1398,"o":"m 1398 123 q 1303 21 1355 54 q 1181 -12 1251 -12 q 1049 53 1100 -12 q 999 224 999 119 q 1200 720 999 437 q 1121 703 1161 703 q 1036 726 1076 703 l 917 581 l 917 9 l 838 -31 l 838 714 q 819 753 838 753 q 768 707 802 753 q 733 648 733 662 q 735 639 733 648 q 750 496 750 564 q 635 136 750 283 q 366 -12 520 -12 q 167 87 228 -12 l 239 151 l 249 144 q 397 25 275 25 q 600 143 511 25 q 689 443 689 262 q 604 731 689 621 q 397 840 519 840 q 204 751 287 840 q 122 554 122 661 q 167 424 122 477 q 277 371 212 371 q 390 421 343 371 q 437 539 437 471 q 418 601 437 576 q 370 625 398 625 q 321 579 327 625 l 307 582 q 302 610 302 600 q 326 669 302 644 q 383 693 349 693 q 452 656 425 693 q 479 561 479 618 q 411 386 479 463 q 244 310 342 310 q 121 361 166 310 q 75 503 75 412 q 190 780 75 659 q 453 901 305 901 q 611 851 546 901 q 724 694 676 801 q 805 790 777 766 q 860 814 833 814 q 900 790 884 814 q 917 726 917 767 l 917 623 l 1068 818 q 1174 753 1107 753 q 1275 803 1231 753 l 1291 787 q 1121 512 1163 653 q 1079 252 1079 372 q 1121 97 1079 156 q 1229 37 1162 37 q 1378 140 1307 37 l 1398 123 z "},"N":{"ha":1215,"x_min":81,"x_max":1254,"o":"m 1254 123 q 1159 21 1210 54 q 1036 -12 1108 -12 q 898 54 951 -12 q 844 224 844 119 q 1036 741 844 433 q 950 713 981 713 q 859 747 907 713 l 754 600 q 760 505 760 565 q 647 134 760 281 q 372 -14 534 -14 q 178 86 248 -14 l 252 149 l 260 142 q 407 24 285 24 q 611 145 524 24 q 699 450 699 267 q 611 731 699 621 q 406 840 524 840 q 216 753 296 840 q 136 546 136 666 q 180 418 136 467 q 290 370 224 370 q 403 421 352 370 q 454 542 454 473 q 435 604 454 579 q 389 628 415 628 q 330 578 352 628 l 313 579 l 313 591 q 335 663 313 637 q 395 689 357 689 q 460 652 434 689 q 486 558 486 615 q 416 384 486 458 q 250 309 345 309 q 127 361 173 309 q 81 504 81 414 q 197 775 81 654 q 456 897 313 897 q 746 639 672 897 l 897 854 q 1004 770 937 770 q 1107 833 1057 770 l 1124 821 q 971 541 1017 669 q 925 278 925 414 q 967 97 925 163 q 1076 32 1010 32 q 1157 57 1122 32 q 1234 140 1192 81 l 1254 123 z "},"O":{"ha":796,"x_min":65,"x_max":732,"o":"m 472 593 q 488 530 488 566 q 451 444 488 479 q 367 408 415 408 q 271 456 311 408 q 232 585 232 505 q 311 807 232 712 q 484 901 390 901 q 658 790 585 901 q 732 509 732 680 q 624 142 732 296 q 367 -12 515 -12 q 153 101 241 -12 q 65 390 65 214 q 282 869 65 674 l 297 850 q 131 465 131 700 q 219 175 131 294 q 425 56 308 56 q 600 160 530 56 q 671 437 671 264 q 596 723 671 612 q 425 833 521 833 q 317 778 360 833 q 273 637 273 722 q 304 526 273 569 q 382 482 334 482 q 439 504 418 482 q 460 561 460 526 q 458 587 460 578 l 472 593 z "},"P":{"ha":753,"x_min":86,"x_max":821,"o":"m 371 433 q 228 336 320 336 q 126 385 165 336 q 86 514 86 434 q 220 792 86 669 q 546 916 353 916 q 746 853 671 916 q 821 690 821 791 q 764 527 821 604 q 604 421 707 450 l 599 441 q 741 654 741 496 q 676 816 741 755 q 504 878 612 878 q 254 782 360 878 q 147 554 147 687 q 183 440 147 484 q 267 397 219 397 q 351 441 327 397 l 371 433 m 604 800 q 547 618 547 734 q 563 488 547 585 q 579 323 579 391 q 502 80 579 172 q 309 -12 425 -12 q 171 35 224 -12 q 117 150 117 83 l 117 168 l 208 189 l 212 180 q 197 126 197 157 q 232 49 197 81 q 319 17 267 17 q 446 82 397 17 q 494 264 494 148 q 483 425 494 325 q 472 558 472 526 q 498 688 472 629 q 587 812 525 747 l 604 800 z "},"Q":{"ha":796,"x_min":65,"x_max":755,"o":"m 755 98 q 679 -16 713 -16 q 626 2 664 -16 q 541 52 587 19 q 367 -12 469 -12 q 152 101 239 -12 q 65 397 65 214 q 281 871 65 684 l 297 856 q 170 679 210 770 q 131 472 131 587 q 300 98 131 222 q 416 150 340 150 q 504 132 460 150 q 559 113 547 115 q 643 255 618 179 q 667 437 667 331 q 594 723 667 611 q 425 835 522 835 q 316 781 359 835 q 273 640 273 726 q 303 527 273 568 q 382 486 333 486 q 438 507 417 486 q 458 562 458 528 q 456 590 458 578 l 472 597 q 486 534 486 565 q 450 447 486 481 q 364 412 414 412 q 270 461 308 412 q 232 591 232 511 q 304 811 232 720 q 479 903 377 903 q 660 788 589 903 q 732 501 732 673 q 695 282 732 389 q 590 100 659 176 q 675 85 642 85 q 747 102 715 85 l 755 98 m 503 78 q 404 121 443 121 q 325 86 360 121 q 424 61 366 61 q 503 78 467 61 z "},"R":{"ha":1028,"x_min":85,"x_max":1067,"o":"m 1067 123 q 869 -18 979 -18 q 802 1 834 -18 q 746 54 770 20 q 714 120 722 88 l 692 222 q 650 375 666 337 q 599 419 634 414 l 599 435 q 700 509 657 445 q 742 648 742 574 q 674 805 742 745 q 500 865 607 865 q 256 771 363 865 q 150 545 150 677 q 184 430 150 474 q 268 386 218 386 q 359 433 322 386 l 374 422 q 228 325 326 325 q 124 371 163 325 q 85 496 85 417 q 218 778 85 653 q 542 903 351 903 q 747 843 672 903 q 822 679 822 783 q 774 526 822 596 q 646 429 726 455 q 705 386 675 418 q 743 326 734 353 l 774 226 q 833 67 812 102 q 904 32 854 32 q 1046 140 971 32 l 1067 123 m 611 782 q 545 618 545 718 q 561 477 545 578 q 578 309 578 376 q 501 74 578 168 q 313 -21 424 -21 q 180 26 237 -21 q 113 157 124 73 l 212 183 l 218 176 q 201 117 201 149 q 235 41 201 75 q 321 8 268 8 q 448 70 398 8 q 497 224 497 132 q 485 385 497 300 q 473 493 473 471 q 498 666 473 600 q 599 800 522 732 l 611 782 z "},"S":{"ha":796,"x_min":49,"x_max":713,"o":"m 700 896 q 624 829 676 857 q 524 802 572 802 q 390 829 476 802 q 279 857 304 857 q 199 821 233 857 q 165 734 165 785 q 196 653 165 685 q 273 604 227 622 q 416 559 319 586 q 572 507 513 532 q 672 431 631 481 q 713 298 713 380 q 612 80 713 176 q 363 -16 511 -16 q 138 56 227 -16 q 49 225 49 127 q 101 346 49 298 q 236 395 153 395 q 383 347 323 395 q 443 233 443 299 q 412 160 443 189 q 338 131 381 131 q 231 197 266 131 l 248 207 q 304 180 273 180 q 360 204 338 180 q 382 262 382 227 q 345 336 382 307 q 256 366 308 366 q 154 321 195 366 q 114 214 114 276 q 186 73 114 132 q 368 14 258 14 q 564 87 486 14 q 642 260 642 161 q 605 370 642 328 q 518 433 569 412 q 378 479 468 454 q 237 526 288 505 q 152 587 186 547 q 118 692 118 627 q 188 843 118 780 q 350 907 258 907 q 472 884 393 907 q 587 863 552 863 q 688 908 645 863 l 700 896 z "},"T":{"ha":724,"x_min":74,"x_max":798,"o":"m 798 872 q 660 822 741 822 q 616 825 629 822 q 561 679 561 772 q 597 529 561 621 q 642 394 633 437 q 650 317 650 352 q 549 85 650 185 q 306 -16 449 -16 q 137 39 201 -16 q 74 183 74 94 q 150 352 74 282 q 332 421 226 421 q 419 393 388 421 q 450 315 450 365 q 401 213 450 253 q 258 170 352 174 l 258 187 q 385 292 385 204 q 358 358 385 333 q 286 383 331 383 q 178 340 220 383 q 135 224 135 296 q 194 80 135 138 q 340 22 252 22 q 510 92 440 22 q 579 262 579 162 q 537 446 579 326 q 496 627 496 566 q 585 828 496 742 q 415 851 486 851 q 274 809 327 851 q 221 696 221 766 q 246 625 221 652 q 306 599 271 599 q 348 616 329 599 q 374 664 368 633 l 392 664 q 285 538 385 538 q 204 570 235 538 q 174 657 174 602 q 264 834 174 760 q 494 908 354 908 q 642 890 560 908 q 742 872 725 872 q 789 890 770 872 l 798 872 z "},"U":{"ha":1028,"x_min":92,"x_max":1065,"o":"m 1065 123 q 868 -12 979 -12 q 768 42 804 -12 q 714 221 732 97 q 515 -17 621 -17 q 431 27 465 -17 q 396 139 396 71 q 408 243 396 184 q 465 423 420 302 q 520 594 509 544 q 530 681 530 644 q 483 818 530 767 q 354 868 435 868 q 201 800 262 868 q 139 637 139 731 q 177 528 139 571 q 269 485 216 485 q 351 517 315 485 q 387 593 387 550 q 371 642 387 622 q 329 661 354 661 q 282 618 294 661 l 269 621 q 268 642 268 629 q 287 696 268 674 q 338 718 307 718 q 393 688 371 718 q 415 615 415 658 q 364 484 415 539 q 241 428 313 428 q 135 475 178 428 q 92 597 92 523 q 179 812 92 719 q 380 905 266 905 q 546 838 481 905 q 611 660 611 770 q 600 567 611 620 q 544 397 589 515 q 488 224 500 280 q 476 126 476 169 q 494 58 476 83 q 538 33 512 33 q 606 78 569 33 q 674 197 643 122 q 711 293 706 271 q 723 370 715 314 q 822 702 751 581 q 964 822 892 822 q 1002 806 985 822 q 1019 778 1019 791 q 972 718 1019 767 q 922 765 945 765 q 829 648 874 765 q 785 353 785 530 q 818 120 785 202 q 908 37 851 37 q 974 60 944 37 q 1044 140 1004 83 l 1065 123 z "},"V":{"ha":926,"x_min":69,"x_max":903,"o":"m 903 704 q 859 682 894 697 q 889 458 889 579 q 808 114 889 247 q 602 -20 726 -20 q 424 79 496 -20 q 353 342 353 178 q 385 551 353 449 q 498 791 416 653 q 414 768 456 768 q 286 817 351 768 q 195 852 237 852 q 125 821 153 852 q 97 746 97 789 q 123 685 97 711 q 182 659 149 659 q 222 672 206 659 q 239 705 239 685 q 230 733 239 720 q 208 749 222 746 l 210 760 q 233 761 218 761 q 294 704 294 761 q 267 640 294 665 q 196 614 239 614 q 106 654 142 614 q 69 747 69 694 q 119 859 69 809 q 235 909 168 909 q 311 892 270 909 q 383 850 351 876 q 465 812 431 812 q 566 888 518 812 l 586 875 q 441 372 441 654 q 490 116 441 213 q 621 18 539 18 q 777 125 713 18 q 842 400 842 232 q 789 668 842 546 q 652 721 701 673 q 604 835 604 770 q 621 884 604 865 q 665 903 638 903 q 763 851 712 903 q 848 710 813 799 q 892 728 875 719 l 903 704 m 778 699 q 725 788 758 753 q 669 823 692 823 q 646 794 646 823 q 682 735 646 768 q 778 699 718 702 z "},"W":{"ha":1157,"x_min":58,"x_max":1096,"o":"m 1096 711 q 1043 688 1080 699 q 1072 476 1072 576 q 989 129 1072 273 q 802 -16 906 -16 q 668 71 720 -16 q 533 -17 614 -17 q 381 80 444 -17 q 318 323 318 176 q 479 785 318 544 q 425 777 454 777 q 280 824 370 777 q 176 861 210 861 q 112 833 138 861 q 86 764 86 804 q 109 706 86 730 q 164 682 132 682 q 213 703 193 682 q 233 750 233 723 q 231 771 233 756 l 248 777 q 261 725 261 758 q 235 658 261 684 q 168 632 208 632 q 90 666 122 632 q 58 754 58 700 q 107 867 58 823 q 235 911 156 911 q 299 901 266 911 q 382 857 332 892 q 458 823 432 823 q 557 885 498 823 l 571 871 q 408 343 408 661 q 450 112 408 196 q 557 28 492 28 q 626 57 595 28 q 657 119 657 87 l 657 643 l 737 685 l 737 149 q 762 57 737 92 q 823 22 786 22 q 962 140 900 22 q 1025 422 1025 257 q 971 671 1025 555 l 966 671 q 801 717 862 671 q 741 828 741 764 q 762 884 741 863 q 819 905 784 905 q 935 857 880 905 q 1032 714 990 808 l 1034 714 q 1082 737 1046 714 l 1096 711 m 957 699 q 819 838 885 838 q 787 802 787 838 q 833 732 787 766 q 943 699 878 699 l 957 699 z "},"X":{"ha":897,"x_min":94,"x_max":946,"o":"m 946 814 q 903 749 939 781 q 821 793 864 793 q 691 690 752 793 q 619 441 630 588 q 642 439 631 439 q 694 453 664 439 l 694 440 q 679 391 694 406 q 618 376 663 377 q 674 129 627 214 q 783 45 722 45 q 847 64 820 45 q 914 140 875 84 l 936 123 q 749 -17 846 -17 q 623 61 666 -17 q 564 328 579 140 q 429 64 518 146 q 239 -18 340 -18 q 161 -1 195 -18 q 119 46 127 17 q 174 123 136 81 l 182 118 q 215 55 184 79 q 286 32 245 32 q 441 132 369 32 q 529 378 513 231 l 497 379 q 456 358 468 379 q 453 392 453 378 q 532 444 453 444 l 541 444 l 541 469 q 479 745 541 640 q 319 850 418 850 q 189 790 241 850 q 136 644 136 730 q 176 529 136 572 q 267 485 215 485 q 341 518 308 485 q 374 591 374 552 q 358 636 374 618 q 319 654 342 654 q 275 625 296 654 l 264 633 l 262 642 q 279 693 262 674 q 325 711 296 711 q 384 683 362 711 q 406 606 406 654 q 357 478 406 532 q 241 424 309 424 q 136 472 177 424 q 94 602 94 521 q 172 815 94 724 q 359 907 250 907 q 528 810 463 907 q 596 533 592 713 q 864 850 699 850 q 946 814 919 850 z "},"Y":{"ha":970,"x_min":94,"x_max":878,"o":"m 854 636 q 835 522 835 607 q 856 307 835 452 q 878 82 878 162 q 772 -269 878 -132 q 526 -407 666 -407 q 398 -363 448 -407 q 349 -250 349 -319 q 389 -148 349 -189 q 488 -107 430 -107 q 562 -134 532 -107 q 591 -196 591 -160 q 572 -249 591 -225 q 518 -277 552 -272 l 507 -262 q 536 -212 536 -241 q 517 -173 536 -189 q 471 -157 498 -157 q 407 -186 434 -157 q 380 -257 380 -215 q 424 -343 380 -309 q 530 -378 468 -378 q 726 -272 644 -378 q 807 16 807 -165 q 779 288 807 102 q 532 29 669 29 q 434 72 473 29 q 396 183 396 114 q 408 274 396 223 q 464 435 419 326 q 520 596 509 544 q 532 689 532 648 q 483 817 532 770 q 353 864 433 864 q 199 799 262 864 q 136 644 136 734 q 172 536 136 577 q 265 494 208 494 q 347 525 315 494 q 379 599 379 556 q 363 644 379 625 q 325 663 347 663 q 278 629 294 663 l 267 635 l 267 637 q 287 692 267 672 q 339 713 308 713 q 388 685 369 713 q 407 612 407 656 q 359 490 407 542 q 243 437 311 437 q 135 484 176 437 q 94 608 94 531 q 179 814 94 727 q 385 901 263 901 q 543 838 483 901 q 603 668 603 774 q 570 510 603 595 l 517 352 q 467 161 467 203 q 489 93 467 119 q 545 66 511 66 q 597 78 572 66 q 645 114 622 90 q 690 171 668 137 q 743 273 711 205 q 775 351 775 341 l 774 433 q 775 493 774 466 q 780 545 777 519 q 790 595 783 571 q 814 620 793 606 q 854 636 834 633 z "},"Z":{"ha":753,"x_min":109,"x_max":789,"o":"m 789 111 q 672 -9 739 30 q 533 -299 637 -189 q 347 -408 429 -408 q 280 -384 308 -408 q 252 -321 252 -359 q 306 -202 252 -261 q 597 -16 360 -144 q 603 52 603 21 q 542 215 603 161 q 379 138 444 138 q 329 179 329 138 q 380 247 329 216 q 496 278 431 278 q 554 267 522 278 q 667 555 667 389 q 595 776 667 690 q 424 861 524 861 q 247 774 323 861 q 170 575 170 686 q 213 428 170 488 q 318 368 256 368 q 407 407 367 368 q 447 501 447 446 q 427 564 447 540 q 376 589 406 589 q 330 562 345 589 l 317 572 q 400 646 338 646 q 467 613 439 646 q 494 532 494 581 q 432 389 494 454 q 289 323 370 323 q 160 381 211 323 q 109 534 109 439 q 217 791 109 684 q 468 899 326 899 q 664 821 586 899 q 742 616 742 743 q 704 437 742 523 q 581 256 666 352 q 677 56 677 195 l 676 31 q 766 127 721 62 l 789 111 m 511 231 q 465 240 491 240 q 408 227 432 240 q 385 197 385 214 q 407 182 385 182 q 458 195 427 182 q 511 231 489 208 m 593 -54 q 380 -194 448 -131 q 313 -318 313 -256 q 327 -356 313 -341 q 364 -371 341 -371 q 499 -282 429 -371 q 593 -54 569 -193 z "},"[":{"ha":261,"x_min":57,"x_max":222,"o":"m 222 -86 l 57 -86 l 57 892 l 222 892 l 222 860 l 115 860 l 115 -53 l 222 -53 l 222 -86 z "},"\\":{"ha":681,"x_min":78,"x_max":603,"o":"m 603 -100 l 555 -100 l 78 892 l 125 892 l 603 -100 z "},"]":{"ha":261,"x_min":39,"x_max":205,"o":"m 205 -86 l 39 -86 l 39 -53 l 147 -53 l 147 860 l 39 860 l 39 892 l 205 892 l 205 -86 z "},"^":{"ha":781,"x_min":90,"x_max":690,"o":"m 690 449 l 643 449 l 392 879 l 138 449 l 90 449 l 380 936 l 404 936 l 690 449 z "},"_":{"ha":694,"x_min":-8,"x_max":703,"o":"m 703 -174 l -8 -174 l -8 -104 l 703 -104 l 703 -174 z "},"`":{"ha":463,"x_min":158,"x_max":317,"o":"m 317 386 l 286 386 l 158 534 l 293 534 l 317 386 z "},"a":{"ha":478,"x_min":-3,"x_max":505,"o":"m 505 107 q 354 -14 428 -14 q 314 1 326 -14 q 301 64 302 16 q 232 -2 260 14 q 168 -17 204 -17 q 85 19 116 -17 q 54 115 54 55 l 54 144 q 20 96 47 135 l -3 111 q 123 256 57 203 q 239 309 189 309 q 309 288 274 309 l 368 318 l 368 87 q 372 43 368 51 q 390 36 375 36 q 429 59 403 36 q 485 125 454 82 l 505 107 m 300 115 l 300 252 q 235 279 273 279 q 161 241 194 279 q 129 147 129 203 q 152 72 129 98 q 215 45 175 45 q 273 76 246 45 q 300 115 300 106 z "},"b":{"ha":463,"x_min":1,"x_max":490,"o":"m 161 245 q 294 317 216 317 q 367 285 338 317 q 395 204 395 254 q 335 55 395 124 q 203 -14 276 -14 q 119 21 149 -14 q 89 118 89 55 l 89 220 q 21 98 66 161 l 1 117 q 64 233 39 177 q 89 292 89 288 l 89 543 q 140 733 89 661 q 257 806 191 806 q 312 782 291 806 q 334 721 334 758 q 295 581 334 668 q 161 332 256 493 l 161 245 m 161 387 q 262 586 238 523 q 286 699 286 649 q 272 752 286 732 q 235 772 258 772 q 181 734 201 772 q 161 631 161 695 l 161 387 m 161 106 q 222 16 161 16 q 299 59 264 16 q 334 161 334 102 q 311 238 334 210 q 253 267 289 267 q 186 236 211 267 q 161 199 161 205 l 161 106 m 490 107 q 292 -25 416 -11 l 286 -9 q 469 123 395 15 l 490 107 z "},"c":{"ha":347,"x_min":-3,"x_max":375,"o":"m 375 107 q 179 -14 299 -14 q 85 25 121 -14 q 49 132 49 63 l 50 138 l 20 96 l -3 111 q 141 287 98 259 q 227 314 184 314 q 329 265 297 314 q 285 211 319 228 q 197 285 255 285 q 136 254 163 285 q 109 174 109 222 q 141 77 109 117 q 224 36 174 36 q 353 123 293 36 l 375 107 z "},"d":{"ha":419,"x_min":-3,"x_max":447,"o":"m 92 542 q 116 607 92 583 q 179 631 140 631 q 327 546 262 631 q 392 329 392 461 q 322 85 392 184 q 163 -14 252 -14 q 81 17 113 -14 q 50 92 50 48 l 50 115 q 52 140 50 134 l 20 96 l -3 111 q 249 318 131 318 q 346 265 312 318 q 350 322 350 295 q 294 488 350 413 q 163 562 237 562 q 92 542 125 562 m 199 36 q 292 88 250 36 q 334 201 334 140 q 310 266 334 242 q 248 289 287 289 q 155 241 195 289 q 115 135 115 193 q 138 63 115 91 q 199 36 161 36 m 447 107 q 249 -25 372 -11 l 243 -9 q 425 123 353 16 l 447 107 z "},"e":{"ha":361,"x_min":-3,"x_max":389,"o":"m 389 107 q 301 13 349 42 q 176 -17 254 -17 q 87 17 120 -17 q 54 111 54 50 q 57 146 54 127 q 20 96 33 115 l -3 111 q 133 275 85 236 q 231 314 180 314 q 276 298 258 314 q 294 256 294 281 q 139 82 294 168 q 227 33 160 33 q 297 56 258 33 q 368 123 336 79 l 389 107 m 126 109 q 239 231 239 163 q 228 264 239 251 q 197 277 216 277 q 139 245 163 277 q 115 168 115 213 q 121 127 115 144 q 126 109 126 111 z "},"f":{"ha":275,"x_min":-98,"x_max":340,"o":"m 1 117 q 27 160 14 137 q 64 233 40 182 q 89 292 89 284 l 89 596 q 141 736 89 675 q 261 798 194 798 q 340 724 340 798 q 304 572 340 659 q 157 311 267 486 l 157 28 q 214 47 189 30 q 290 136 240 64 l 311 119 q 157 -11 233 -11 l 157 -245 q 114 -371 157 -323 q 7 -418 71 -418 q -98 -359 -60 -418 l -43 -304 l -32 -314 q -36 -334 -36 -327 q -20 -378 -36 -359 q 22 -396 -3 -396 q 89 -261 89 -396 l 89 -11 q 20 20 55 -5 q 50 78 26 49 q 89 40 69 47 l 89 220 q 21 98 62 154 l 1 117 m 157 378 q 285 707 285 583 q 240 768 285 768 q 182 733 207 768 q 157 642 157 699 l 157 378 z "},"g":{"ha":492,"x_min":-3,"x_max":528,"o":"m 528 119 q 390 -9 452 -2 l 390 -224 q 336 -363 390 -310 q 203 -416 281 -416 q 106 -392 150 -416 q 52 -334 62 -368 l 109 -279 l 118 -289 q 115 -307 115 -298 q 143 -368 115 -342 q 210 -395 170 -395 q 292 -354 262 -395 q 322 -239 322 -313 l 322 66 q 180 -17 256 -17 q 89 24 124 -17 q 53 115 53 64 l 53 143 l 20 96 l -3 111 q 130 268 79 227 q 233 310 182 310 q 322 278 290 310 l 390 319 l 390 31 q 507 136 437 35 l 528 119 m 322 113 l 322 240 q 239 288 291 288 q 157 248 190 288 q 123 153 123 209 q 148 70 123 100 q 215 40 172 40 q 292 71 261 40 q 322 113 322 102 z "},"h":{"ha":492,"x_min":-3,"x_max":519,"o":"m 519 107 q 359 -14 437 -14 q 325 3 336 -14 q 313 75 313 20 l 313 224 q 282 262 313 262 q 231 239 258 262 q 183 175 204 216 q 161 122 161 135 l 161 18 l 93 -25 l 93 214 q 18 94 58 144 l -3 111 q 28 159 14 136 q 68 232 43 182 q 93 292 93 281 l 93 585 q 140 743 93 681 q 252 804 188 804 q 328 711 328 804 q 161 325 328 590 l 161 197 q 245 287 210 262 q 318 313 279 313 q 380 224 380 313 l 380 87 q 400 36 380 36 q 498 125 435 36 l 519 107 m 161 383 q 255 575 229 504 q 281 704 281 646 q 267 760 281 738 q 232 782 254 782 q 180 740 199 782 q 161 624 161 698 l 161 383 z "},"i":{"ha":261,"x_min":-3,"x_max":288,"o":"m 171 449 l 123 389 l 75 449 l 123 507 l 171 449 m 288 107 q 208 18 249 49 q 135 -14 168 -14 q 89 6 98 -14 q 79 75 79 26 l 79 199 q 18 94 58 145 l -3 111 q 79 281 60 199 l 147 317 l 147 102 q 151 49 147 62 q 170 36 155 36 q 268 125 200 36 l 288 107 z "},"j":{"ha":275,"x_min":-75,"x_max":311,"o":"m 176 454 l 129 390 l 82 454 l 129 517 l 176 454 m 311 119 q 160 -11 230 -12 l 160 -221 q 153 -318 160 -272 q 104 -394 145 -365 q 24 -424 63 -424 q -75 -350 -54 -424 q -14 -307 -50 -326 l -8 -317 q -12 -338 -12 -329 q 2 -379 -12 -363 q 40 -395 16 -395 q 83 -357 75 -395 q 92 -201 92 -320 l 92 218 q 22 98 71 168 l 3 117 q 90 288 62 210 l 160 322 l 160 28 q 219 51 191 28 q 290 138 246 74 l 311 119 z "},"k":{"ha":521,"x_min":1,"x_max":553,"o":"m 553 115 q 383 -14 472 -14 q 306 18 338 -14 q 211 146 273 49 l 176 103 l 176 11 l 109 -24 l 109 225 l 21 98 l 1 117 q 109 292 109 283 l 109 599 q 164 743 109 681 q 286 804 219 804 q 363 728 363 804 q 315 562 363 668 q 176 322 268 456 l 176 144 q 300 277 256 243 q 385 311 344 311 q 436 289 414 311 q 457 253 457 267 q 410 205 457 233 q 353 261 386 261 q 260 199 315 261 q 346 77 313 117 q 422 36 378 36 q 532 132 463 36 l 553 115 m 176 375 q 277 569 243 480 q 311 711 311 657 q 298 756 311 738 q 262 775 285 775 q 201 733 227 775 q 176 632 176 690 l 176 375 z "},"l":{"ha":261,"x_min":-3,"x_max":343,"o":"m -3 111 q 21 145 10 130 q 42 182 31 161 q 66 236 53 203 q 79 281 79 270 l 79 543 q 140 719 79 640 q 268 798 201 798 q 323 773 303 798 q 343 708 343 749 q 298 562 343 654 q 147 304 254 470 l 147 109 q 151 51 147 66 q 168 36 154 36 q 267 125 199 36 l 288 107 q 127 -14 207 -14 q 92 2 104 -14 q 79 75 79 18 l 79 199 q 18 94 58 145 l -3 111 m 147 354 q 267 571 238 503 q 296 688 296 638 q 249 764 296 764 q 177 715 206 764 q 147 585 147 667 l 147 354 z "},"m":{"ha":665,"x_min":-3,"x_max":693,"o":"m 693 107 q 533 -14 614 -14 q 497 2 510 -14 q 485 75 485 17 l 485 233 q 465 258 485 258 q 441 249 454 258 q 413 222 428 240 q 374 162 399 203 q 350 114 350 120 l 350 7 l 282 -26 l 282 221 q 261 252 282 252 q 222 233 243 252 q 174 167 201 214 q 147 114 147 120 l 147 7 l 79 -26 l 79 199 q 18 94 58 145 l -3 111 q 79 285 57 192 l 147 317 l 147 176 q 293 309 224 309 q 336 286 321 309 q 350 176 350 264 q 426 279 393 250 q 494 309 458 309 q 553 229 553 309 l 553 104 q 557 46 553 57 q 574 36 562 36 q 672 125 604 36 l 693 107 z "},"n":{"ha":463,"x_min":-3,"x_max":490,"o":"m 490 107 q 334 -14 408 -14 q 296 2 309 -14 q 283 75 283 18 l 283 231 q 261 267 283 267 q 238 258 250 267 q 213 234 227 250 q 175 181 199 218 q 150 140 150 144 l 150 18 l 82 -25 l 82 203 q 18 94 61 149 l -3 111 q 83 285 66 208 l 150 317 l 150 191 q 230 287 199 262 q 292 311 260 311 q 336 291 320 311 q 351 191 351 271 l 351 100 q 354 50 351 63 q 371 36 357 36 q 469 125 404 36 l 490 107 z "},"o":{"ha":435,"x_min":-4,"x_max":461,"o":"m -4 111 q 140 273 84 237 q 258 310 197 310 q 351 279 317 310 q 385 192 385 248 q 321 47 385 113 q 172 -18 257 -18 q 84 15 117 -18 q 52 98 52 47 q 56 147 52 125 q 18 94 45 136 l -4 111 m 216 26 q 298 64 268 26 q 329 163 329 101 q 300 247 329 216 q 225 277 272 277 q 146 241 176 277 q 117 140 117 205 q 216 26 117 26 m 461 107 q 359 5 407 30 q 262 -25 311 -20 l 257 -9 q 439 123 369 16 l 461 107 z "},"p":{"ha":478,"x_min":-107,"x_max":504,"o":"m 153 244 q 288 314 222 314 q 371 277 340 314 q 401 180 401 241 q 351 45 401 103 q 236 -12 300 -12 q 153 16 189 -12 l 153 -245 q 108 -372 153 -326 q -1 -418 63 -418 q -107 -359 -69 -418 l -52 -304 l -40 -314 q -45 -334 -45 -326 q -28 -377 -45 -359 q 14 -396 -12 -396 q 81 -261 81 -396 l 81 201 q 17 94 56 145 l -3 111 q 81 283 53 187 l 153 319 l 153 244 m 153 50 q 235 17 187 17 q 310 55 279 17 q 340 150 340 93 q 314 228 340 199 q 245 257 287 257 q 153 200 192 257 l 153 50 m 504 107 q 306 -25 429 -11 l 300 -9 q 484 123 409 15 l 504 107 z "},"q":{"ha":478,"x_min":-3,"x_max":514,"o":"m 514 119 q 379 -8 443 3 l 379 -313 l 311 -313 l 311 68 q 178 -12 251 -12 q 91 29 123 -12 q 58 135 58 70 l 58 147 q 20 96 43 130 l -3 111 q 113 264 62 208 q 233 319 164 319 q 313 293 277 319 l 379 328 l 379 31 q 493 136 423 36 l 514 119 m 311 113 l 311 258 q 233 290 275 290 q 154 252 185 290 q 123 158 123 214 q 148 78 123 107 q 210 49 172 49 q 311 113 274 49 z "},"r":{"ha":334,"x_min":-3,"x_max":359,"o":"m 359 107 q 205 -14 283 -14 q 126 77 126 -14 q 196 236 126 150 q 153 233 184 233 q 110 241 132 233 q 18 94 75 166 l -3 111 q 109 321 61 203 q 211 290 174 290 q 272 318 246 290 l 283 310 q 217 206 242 258 q 192 90 192 153 q 205 53 192 71 q 233 36 218 36 q 283 57 259 36 q 339 123 307 78 l 359 107 z "},"s":{"ha":361,"x_min":-3,"x_max":389,"o":"m 157 328 q 241 248 210 300 q 273 143 273 196 q 236 33 273 80 q 142 -14 199 -14 q 80 5 113 -14 q 22 61 47 24 q 83 117 43 94 l 89 110 q 87 90 87 103 q 108 38 87 61 q 154 16 128 16 q 206 42 186 16 q 227 110 227 69 q 126 260 227 194 l 68 169 q 18 94 34 113 l -3 111 q 135 361 66 214 l 151 359 l 157 328 m 389 107 q 205 -22 316 -12 l 201 -9 q 284 29 250 2 q 368 123 319 56 l 389 107 z "},"t":{"ha":304,"x_min":-4,"x_max":330,"o":"m 330 109 q 168 -14 254 -14 q 117 6 127 -14 q 107 68 107 25 l 107 232 q 18 96 62 154 l -4 111 q 39 176 21 149 q 82 249 56 204 q 107 300 107 294 l 107 578 l 175 644 l 175 386 l 279 550 l 306 530 l 175 323 l 175 115 q 179 52 175 68 q 201 36 183 36 q 311 126 248 36 l 330 109 z "},"u":{"ha":478,"x_min":-3,"x_max":505,"o":"m 505 107 q 349 -14 423 -14 q 310 3 323 -14 q 297 75 297 20 l 297 132 q 194 2 224 24 q 138 -20 164 -20 q 95 -1 110 -20 q 79 87 79 18 l 79 199 q 20 96 50 134 l -3 111 q 79 286 58 198 l 147 321 l 147 75 q 150 40 147 49 q 167 31 153 31 q 206 54 182 31 q 263 127 230 77 q 297 183 297 178 l 297 286 l 366 321 l 366 109 q 369 51 366 66 q 386 36 372 36 q 485 125 419 36 l 505 107 z "},"v":{"ha":376,"x_min":-3,"x_max":404,"o":"m 175 437 q 218 447 191 447 q 311 401 272 447 q 350 285 350 355 q 174 -22 350 123 l 165 -17 q 168 20 168 4 q 89 192 168 82 q 50 140 73 176 l 18 93 l -3 111 q 29 159 9 127 q 60 208 49 193 q 102 309 95 256 l 111 309 q 157 216 118 273 q 206 129 197 159 q 215 72 215 99 l 215 53 q 322 286 322 163 q 300 359 322 332 q 241 386 277 386 q 189 372 214 386 q 175 437 175 401 m 404 107 q 221 -22 330 -12 l 216 -9 q 300 29 266 2 q 382 123 334 56 l 404 107 z "},"w":{"ha":534,"x_min":-3,"x_max":562,"o":"m 285 421 q 319 433 295 433 q 428 385 387 433 q 469 260 469 337 q 444 141 469 200 q 345 -17 419 81 l 329 -9 q 334 21 334 8 q 321 79 334 51 q 287 136 309 108 l 254 180 q 134 -17 210 41 l 118 -9 q 122 29 122 18 q 109 92 122 47 q 74 179 95 136 q 18 94 33 114 l -3 114 q 100 311 71 218 l 114 306 q 144 199 114 259 q 175 81 175 140 l 175 71 l 179 71 q 262 318 242 180 l 279 318 q 323 210 279 259 q 382 72 378 151 q 441 253 441 172 q 350 366 441 366 q 307 363 320 366 q 285 421 285 397 m 562 107 q 379 -22 490 -12 l 375 -9 q 458 29 424 2 q 542 123 492 56 l 562 107 z "},"x":{"ha":449,"x_min":-3,"x_max":476,"o":"m 476 107 q 400 18 439 50 q 335 -14 361 -14 q 296 7 312 -14 q 231 109 280 27 q 195 55 222 97 q 147 -1 169 14 q 103 -16 125 -16 q 46 20 60 -16 q 85 77 63 58 q 125 35 108 35 q 178 81 150 35 l 214 140 l 168 224 q 143 252 153 252 q 88 189 132 252 q 18 94 45 127 l -3 111 q 114 273 81 233 q 167 313 147 313 q 216 277 195 313 l 254 210 q 322 300 300 285 q 367 315 344 315 q 414 292 396 315 q 371 229 407 270 q 339 258 353 258 q 315 245 327 258 q 273 178 302 232 q 349 57 337 66 q 375 47 360 47 q 454 123 399 47 l 476 107 z "},"y":{"ha":478,"x_min":1,"x_max":514,"o":"m 514 119 q 376 -9 441 1 l 376 -225 q 327 -359 376 -305 q 203 -414 277 -414 q 119 -392 161 -414 q 56 -332 78 -370 l 113 -268 l 122 -277 q 119 -302 119 -294 q 147 -359 119 -334 q 214 -385 174 -385 q 280 -352 256 -385 q 304 -260 304 -319 l 304 119 q 216 12 249 41 q 153 -17 184 -17 q 87 54 87 -17 l 87 214 q 21 98 62 155 l 1 117 q 87 289 67 220 l 160 325 l 160 57 q 179 33 160 33 l 186 33 q 304 175 211 33 l 304 289 l 376 325 l 376 31 q 492 136 422 35 l 514 119 z "},"z":{"ha":406,"x_min":-3,"x_max":432,"o":"m 432 107 q 321 -1 385 33 q 347 -132 347 -55 q 288 -328 347 -244 q 140 -412 229 -412 q 56 -383 93 -412 q 14 -313 20 -354 q 87 -269 42 -290 l 96 -278 q 90 -315 90 -293 q 110 -364 90 -345 q 157 -383 129 -383 q 247 -324 207 -383 q 286 -170 286 -265 q 256 -31 286 -94 q 171 64 226 31 q 98 18 133 18 q 62 46 62 18 q 91 88 62 71 q 163 104 119 104 l 168 104 q 277 256 238 189 q 187 236 237 236 q 114 250 144 236 q 18 94 72 166 l -3 111 q 117 328 42 176 q 233 286 186 286 q 330 326 285 286 l 347 314 q 196 96 295 217 q 307 22 265 79 q 411 123 363 53 l 432 107 m 146 75 l 129 75 q 104 68 119 75 q 90 49 90 60 q 102 40 90 40 q 126 50 113 40 q 146 75 139 59 z "},"{":{"ha":608,"x_min":175,"x_max":518,"o":"m 518 -267 q 356 -179 414 -247 q 297 -12 297 -111 q 310 73 297 13 q 323 176 323 134 q 283 256 323 216 q 175 307 243 296 l 175 330 q 289 387 254 348 q 325 471 325 425 q 311 565 325 495 q 298 677 298 635 q 357 821 298 753 q 518 907 415 889 l 518 882 q 416 830 453 871 q 379 737 379 790 q 392 635 379 706 q 406 533 406 564 q 360 412 406 469 q 227 321 315 356 q 358 229 312 286 q 404 115 404 172 q 391 1 404 68 q 378 -89 378 -66 q 518 -244 378 -212 l 518 -267 z "},"|":{"ha":665,"x_min":309,"x_max":357,"o":"m 357 -262 l 309 -262 l 309 892 l 357 892 l 357 -262 z "},"}":{"ha":608,"x_min":89,"x_max":432,"o":"m 432 309 q 318 253 354 293 q 282 170 282 213 q 296 76 282 146 q 310 -37 310 6 q 251 -180 310 -113 q 89 -267 193 -248 l 89 -241 q 191 -191 153 -231 q 229 -97 229 -150 q 215 5 229 -66 q 201 107 201 77 q 247 228 201 172 q 382 318 293 283 q 250 410 296 353 q 204 524 204 467 q 217 638 204 571 q 231 729 231 705 q 89 884 231 850 l 89 907 q 252 818 193 887 q 311 652 311 749 q 298 567 311 626 q 285 464 285 508 q 325 383 285 423 q 432 332 366 343 l 432 309 z "},"~":{"ha":926,"x_min":100,"x_max":825,"o":"m 825 526 q 778 402 823 448 q 672 355 733 355 q 458 420 618 355 q 254 485 299 485 q 125 358 153 485 l 100 358 q 148 485 104 441 q 244 529 192 529 q 313 518 272 529 q 456 465 355 507 q 600 411 557 422 q 669 400 642 400 q 800 526 785 400 l 825 526 z "},"":{"ha":708,"x_min":47,"x_max":774,"o":"m 478 135 q 250 -14 376 -14 q 104 60 160 -14 q 47 250 47 134 q 130 565 47 408 q 342 819 212 722 q 597 916 473 916 q 726 862 678 916 q 774 717 774 808 q 564 380 774 505 l 564 102 q 569 48 564 62 q 596 35 574 35 q 714 123 646 35 l 736 106 q 651 12 689 39 q 571 -16 613 -16 q 501 9 525 -16 q 478 135 477 35 m 564 418 q 679 523 639 456 q 718 672 718 591 q 668 808 718 758 q 534 859 618 859 q 257 698 382 859 q 132 314 132 537 q 176 117 132 192 q 290 43 220 43 q 332 49 311 43 q 373 68 353 56 q 412 100 393 81 q 454 155 431 119 q 478 201 478 191 l 478 349 q 439 346 455 346 q 327 388 368 346 q 285 498 285 429 q 326 630 285 566 q 439 728 367 694 l 449 713 q 346 524 346 627 q 379 426 346 463 q 468 390 412 390 l 478 390 l 478 664 l 564 710 l 564 418 m 490 1042 l 429 978 l 370 1042 l 429 1110 l 490 1042 m 640 1042 l 579 978 l 518 1042 l 579 1110 l 640 1042 z "},"":{"ha":708,"x_min":47,"x_max":774,"o":"m 478 135 q 250 -14 376 -14 q 104 60 160 -14 q 47 250 47 134 q 130 565 47 408 q 342 819 212 722 q 597 916 473 916 q 726 862 678 916 q 774 717 774 808 q 564 380 774 505 l 564 102 q 569 48 564 62 q 596 35 574 35 q 714 123 646 35 l 736 106 q 651 12 689 39 q 571 -16 613 -16 q 501 9 525 -16 q 478 135 477 35 m 564 418 q 679 523 639 456 q 718 672 718 591 q 668 808 718 758 q 534 859 618 859 q 257 698 382 859 q 132 314 132 537 q 176 117 132 192 q 290 43 220 43 q 332 49 311 43 q 373 68 353 56 q 412 100 393 81 q 454 155 431 119 q 478 201 478 191 l 478 349 q 439 346 455 346 q 327 388 368 346 q 285 498 285 429 q 326 630 285 566 q 439 728 367 694 l 449 713 q 346 524 346 627 q 379 426 346 463 q 468 390 412 390 l 478 390 l 478 664 l 564 710 l 564 418 m 545 1159 q 596 1139 576 1159 q 616 1088 616 1120 q 584 1013 616 1045 q 507 981 551 981 q 457 1000 475 981 q 439 1052 439 1020 q 470 1127 439 1096 q 545 1159 500 1159 m 524 1010 q 570 1073 570 1010 q 528 1130 570 1130 q 494 1112 507 1130 q 481 1065 481 1094 q 493 1026 481 1042 q 524 1010 505 1010 z "},"":{"ha":652,"x_min":47,"x_max":714,"o":"m 690 123 q 575 13 640 46 q 408 -21 509 -21 q 146 79 245 -21 q 47 343 47 180 q 118 612 47 481 q 302 822 188 743 q 532 901 416 901 q 665 854 616 901 q 714 726 714 808 q 628 512 714 607 q 441 418 542 418 q 358 449 391 418 q 326 530 326 480 q 416 681 326 610 l 431 664 q 382 564 382 632 q 411 495 382 522 q 484 468 439 468 q 605 527 552 468 q 659 671 659 587 q 608 802 659 752 q 476 851 558 851 q 233 723 339 851 q 127 415 127 595 q 222 139 127 250 q 461 29 317 29 q 581 55 533 29 q 668 140 629 80 l 690 123 m 384 -70 l 393 -70 q 431 -84 417 -70 q 445 -121 445 -99 q 413 -195 445 -158 q 278 -302 380 -231 l 269 -281 q 364 -171 364 -210 q 323 -127 364 -140 l 384 -70 z "},"":{"ha":724,"x_min":47,"x_max":717,"o":"m 717 850 q 561 794 652 794 q 439 819 511 794 q 328 844 368 844 q 229 804 266 844 q 192 696 192 763 q 233 583 192 626 q 335 541 273 541 q 411 551 361 541 l 415 524 q 213 432 286 507 q 140 249 140 357 q 201 85 140 147 q 357 24 261 24 q 530 95 457 24 q 603 256 603 166 q 566 361 603 317 q 479 406 530 406 q 406 375 438 406 q 374 307 374 345 q 390 261 374 280 q 428 243 406 243 q 473 268 454 243 l 489 260 q 407 186 473 186 q 352 210 373 186 q 332 273 332 234 q 389 396 332 342 q 524 450 446 450 q 626 409 587 450 q 664 307 664 368 q 571 87 664 187 q 335 -14 477 -14 q 127 61 207 -14 q 47 243 47 135 q 104 398 47 327 q 265 507 161 469 q 111 664 111 541 q 205 828 111 755 q 416 901 299 901 q 538 876 465 901 q 648 851 612 851 q 707 868 675 851 l 717 850 m 585 1126 l 406 978 l 375 978 l 437 1126 l 585 1126 z "},"":{"ha":1215,"x_min":81,"x_max":1254,"o":"m 1254 123 q 1159 21 1210 54 q 1036 -12 1108 -12 q 898 54 951 -12 q 844 224 844 119 q 1036 741 844 433 q 950 713 981 713 q 859 747 907 713 l 754 600 q 760 505 760 565 q 647 134 760 281 q 372 -14 534 -14 q 178 86 248 -14 l 252 149 l 260 142 q 407 24 285 24 q 611 145 524 24 q 699 450 699 267 q 611 731 699 621 q 406 840 524 840 q 216 753 296 840 q 136 546 136 666 q 180 418 136 467 q 290 370 224 370 q 403 421 352 370 q 454 542 454 473 q 435 604 454 579 q 389 628 415 628 q 330 578 352 628 l 313 579 l 313 591 q 335 663 313 637 q 395 689 357 689 q 460 652 434 689 q 486 558 486 615 q 416 384 486 458 q 250 309 345 309 q 127 361 173 309 q 81 504 81 414 q 197 775 81 654 q 456 897 313 897 q 746 639 672 897 l 897 854 q 1004 770 937 770 q 1107 833 1057 770 l 1124 821 q 971 541 1017 669 q 925 278 925 414 q 967 97 925 163 q 1076 32 1010 32 q 1157 57 1122 32 q 1234 140 1192 81 l 1254 123 m 1041 1094 q 932 991 969 991 q 879 1015 920 991 q 823 1038 838 1038 q 765 993 802 1038 l 730 993 q 799 1079 776 1058 q 841 1100 821 1100 q 899 1076 863 1100 q 951 1053 936 1053 q 1005 1094 968 1053 l 1041 1094 z "},"":{"ha":796,"x_min":65,"x_max":732,"o":"m 472 593 q 488 530 488 566 q 451 444 488 479 q 367 408 415 408 q 271 456 311 408 q 232 585 232 505 q 311 807 232 712 q 484 901 390 901 q 658 790 585 901 q 732 509 732 680 q 624 142 732 296 q 367 -12 515 -12 q 153 101 241 -12 q 65 390 65 214 q 282 869 65 674 l 297 850 q 131 465 131 700 q 219 175 131 294 q 425 56 308 56 q 600 160 530 56 q 671 437 671 264 q 596 723 671 612 q 425 833 521 833 q 317 778 360 833 q 273 637 273 722 q 304 526 273 569 q 382 482 334 482 q 439 504 418 482 q 460 561 460 526 q 458 587 460 578 l 472 593 m 396 1042 l 335 978 l 275 1042 l 335 1110 l 396 1042 m 546 1042 l 485 978 l 424 1042 l 485 1110 l 546 1042 z "},"":{"ha":1028,"x_min":92,"x_max":1065,"o":"m 1065 123 q 868 -12 979 -12 q 768 42 804 -12 q 714 221 732 97 q 515 -17 621 -17 q 431 27 465 -17 q 396 139 396 71 q 408 243 396 184 q 465 423 420 302 q 520 594 509 544 q 530 681 530 644 q 483 818 530 767 q 354 868 435 868 q 201 800 262 868 q 139 637 139 731 q 177 528 139 571 q 269 485 216 485 q 351 517 315 485 q 387 593 387 550 q 371 642 387 622 q 329 661 354 661 q 282 618 294 661 l 269 621 q 268 642 268 629 q 287 696 268 674 q 338 718 307 718 q 393 688 371 718 q 415 615 415 658 q 364 484 415 539 q 241 428 313 428 q 135 475 178 428 q 92 597 92 523 q 179 812 92 719 q 380 905 266 905 q 546 838 481 905 q 611 660 611 770 q 600 567 611 620 q 544 397 589 515 q 488 224 500 280 q 476 126 476 169 q 494 58 476 83 q 538 33 512 33 q 606 78 569 33 q 674 197 643 122 q 711 293 706 271 q 723 370 715 314 q 822 702 751 581 q 964 822 892 822 q 1002 806 985 822 q 1019 778 1019 791 q 972 718 1019 767 q 922 765 945 765 q 829 648 874 765 q 785 353 785 530 q 818 120 785 202 q 908 37 851 37 q 974 60 944 37 q 1044 140 1004 83 l 1065 123 m 715 1042 l 654 978 l 595 1042 l 654 1110 l 715 1042 m 865 1042 l 804 978 l 743 1042 l 804 1110 l 865 1042 z "},"":{"ha":478,"x_min":-3,"x_max":505,"o":"m 505 107 q 354 -14 428 -14 q 314 1 326 -14 q 301 64 302 16 q 232 -2 260 14 q 168 -17 204 -17 q 85 19 116 -17 q 54 115 54 55 l 54 144 q 20 96 47 135 l -3 111 q 123 256 57 203 q 239 309 189 309 q 309 288 274 309 l 368 318 l 368 87 q 372 43 368 51 q 390 36 375 36 q 429 59 403 36 q 485 125 454 82 l 505 107 m 300 115 l 300 252 q 235 279 273 279 q 161 241 194 279 q 129 147 129 203 q 152 72 129 98 q 215 45 175 45 q 273 76 246 45 q 300 115 300 106 m 439 534 l 260 386 l 229 386 l 292 534 l 439 534 z "},"":{"ha":478,"x_min":-3,"x_max":505,"o":"m 505 107 q 354 -14 428 -14 q 314 1 326 -14 q 301 64 302 16 q 232 -2 260 14 q 168 -17 204 -17 q 85 19 116 -17 q 54 115 54 55 l 54 144 q 20 96 47 135 l -3 111 q 123 256 57 203 q 239 309 189 309 q 309 288 274 309 l 368 318 l 368 87 q 372 43 368 51 q 390 36 375 36 q 429 59 403 36 q 485 125 454 82 l 505 107 m 300 115 l 300 252 q 235 279 273 279 q 161 241 194 279 q 129 147 129 203 q 152 72 129 98 q 215 45 175 45 q 273 76 246 45 q 300 115 300 106 m 324 386 l 294 386 l 165 534 l 300 534 l 324 386 z "},"":{"ha":478,"x_min":-3,"x_max":505,"o":"m 505 107 q 354 -14 428 -14 q 314 1 326 -14 q 301 64 302 16 q 232 -2 260 14 q 168 -17 204 -17 q 85 19 116 -17 q 54 115 54 55 l 54 144 q 20 96 47 135 l -3 111 q 123 256 57 203 q 239 309 189 309 q 309 288 274 309 l 368 318 l 368 87 q 372 43 368 51 q 390 36 375 36 q 429 59 403 36 q 485 125 454 82 l 505 107 m 300 115 l 300 252 q 235 279 273 279 q 161 241 194 279 q 129 147 129 203 q 152 72 129 98 q 215 45 175 45 q 273 76 246 45 q 300 115 300 106 m 404 386 l 373 386 l 256 464 l 134 386 l 103 386 l 256 566 l 404 386 z "},"":{"ha":478,"x_min":-3,"x_max":505,"o":"m 505 107 q 354 -14 428 -14 q 314 1 326 -14 q 301 64 302 16 q 232 -2 260 14 q 168 -17 204 -17 q 85 19 116 -17 q 54 115 54 55 l 54 144 q 20 96 47 135 l -3 111 q 123 256 57 203 q 239 309 189 309 q 309 288 274 309 l 368 318 l 368 87 q 372 43 368 51 q 390 36 375 36 q 429 59 403 36 q 485 125 454 82 l 505 107 m 300 115 l 300 252 q 235 279 273 279 q 161 241 194 279 q 129 147 129 203 q 152 72 129 98 q 215 45 175 45 q 273 76 246 45 q 300 115 300 106 m 236 450 l 175 386 l 115 450 l 175 518 l 236 450 m 386 450 l 325 386 l 264 450 l 325 518 l 386 450 z "},"":{"ha":478,"x_min":-3,"x_max":505,"o":"m 505 107 q 354 -14 428 -14 q 314 1 326 -14 q 301 64 302 16 q 232 -2 260 14 q 168 -17 204 -17 q 85 19 116 -17 q 54 115 54 55 l 54 144 q 20 96 47 135 l -3 111 q 123 256 57 203 q 239 309 189 309 q 309 288 274 309 l 368 318 l 368 87 q 372 43 368 51 q 390 36 375 36 q 429 59 403 36 q 485 125 454 82 l 505 107 m 300 115 l 300 252 q 235 279 273 279 q 161 241 194 279 q 129 147 129 203 q 152 72 129 98 q 215 45 175 45 q 273 76 246 45 q 300 115 300 106 m 394 503 q 285 400 322 400 q 232 423 273 400 q 176 447 191 447 q 118 401 155 447 l 83 401 q 152 488 129 467 q 194 509 174 509 q 252 485 216 509 q 304 461 289 461 q 358 503 321 461 l 394 503 z "},"":{"ha":478,"x_min":-3,"x_max":505,"o":"m 505 107 q 354 -14 428 -14 q 314 1 326 -14 q 301 64 302 16 q 232 -2 260 14 q 168 -17 204 -17 q 85 19 116 -17 q 54 115 54 55 l 54 144 q 20 96 47 135 l -3 111 q 123 256 57 203 q 239 309 189 309 q 309 288 274 309 l 368 318 l 368 87 q 372 43 368 51 q 390 36 375 36 q 429 59 403 36 q 485 125 454 82 l 505 107 m 300 115 l 300 252 q 235 279 273 279 q 161 241 194 279 q 129 147 129 203 q 152 72 129 98 q 215 45 175 45 q 273 76 246 45 q 300 115 300 106 m 290 567 q 342 547 321 567 q 362 496 362 528 q 330 421 362 453 q 252 389 297 389 q 203 408 221 389 q 184 460 184 428 q 215 535 184 504 q 290 567 246 567 m 269 418 q 315 481 315 418 q 273 538 315 538 q 239 520 252 538 q 227 473 227 502 q 239 434 227 450 q 269 418 251 418 z "},"":{"ha":347,"x_min":-3,"x_max":375,"o":"m 375 107 q 179 -14 299 -14 q 85 25 121 -14 q 49 132 49 63 l 50 138 l 20 96 l -3 111 q 141 287 98 259 q 227 314 184 314 q 329 265 297 314 q 285 211 319 228 q 197 285 255 285 q 136 254 163 285 q 109 174 109 222 q 141 77 109 117 q 224 36 174 36 q 353 123 293 36 l 375 107 m 193 -66 l 202 -66 q 240 -80 226 -66 q 254 -117 254 -95 q 221 -191 254 -154 q 87 -298 189 -227 l 77 -277 q 173 -167 173 -206 q 132 -123 173 -136 l 193 -66 z "},"":{"ha":361,"x_min":-3,"x_max":389,"o":"m 389 107 q 301 13 349 42 q 176 -17 254 -17 q 87 17 120 -17 q 54 111 54 50 q 57 146 54 127 q 20 96 33 115 l -3 111 q 133 275 85 236 q 231 314 180 314 q 276 298 258 314 q 294 256 294 281 q 139 82 294 168 q 227 33 160 33 q 297 56 258 33 q 368 123 336 79 l 389 107 m 126 109 q 239 231 239 163 q 228 264 239 251 q 197 277 216 277 q 139 245 163 277 q 115 168 115 213 q 121 127 115 144 q 126 109 126 111 m 382 534 l 203 386 l 172 386 l 235 534 l 382 534 z "},"":{"ha":361,"x_min":-3,"x_max":389,"o":"m 389 107 q 301 13 349 42 q 176 -17 254 -17 q 87 17 120 -17 q 54 111 54 50 q 57 146 54 127 q 20 96 33 115 l -3 111 q 133 275 85 236 q 231 314 180 314 q 276 298 258 314 q 294 256 294 281 q 139 82 294 168 q 227 33 160 33 q 297 56 258 33 q 368 123 336 79 l 389 107 m 126 109 q 239 231 239 163 q 228 264 239 251 q 197 277 216 277 q 139 245 163 277 q 115 168 115 213 q 121 127 115 144 q 126 109 126 111 m 267 386 l 237 386 l 109 534 l 243 534 l 267 386 z "},"":{"ha":361,"x_min":-3,"x_max":389,"o":"m 389 107 q 301 13 349 42 q 176 -17 254 -17 q 87 17 120 -17 q 54 111 54 50 q 57 146 54 127 q 20 96 33 115 l -3 111 q 133 275 85 236 q 231 314 180 314 q 276 298 258 314 q 294 256 294 281 q 139 82 294 168 q 227 33 160 33 q 297 56 258 33 q 368 123 336 79 l 389 107 m 126 109 q 239 231 239 163 q 228 264 239 251 q 197 277 216 277 q 139 245 163 277 q 115 168 115 213 q 121 127 115 144 q 126 109 126 111 m 347 386 l 316 386 l 199 464 l 77 386 l 46 386 l 199 566 l 347 386 z "},"":{"ha":361,"x_min":-3,"x_max":389,"o":"m 389 107 q 301 13 349 42 q 176 -17 254 -17 q 87 17 120 -17 q 54 111 54 50 q 57 146 54 127 q 20 96 33 115 l -3 111 q 133 275 85 236 q 231 314 180 314 q 276 298 258 314 q 294 256 294 281 q 139 82 294 168 q 227 33 160 33 q 297 56 258 33 q 368 123 336 79 l 389 107 m 126 109 q 239 231 239 163 q 228 264 239 251 q 197 277 216 277 q 139 245 163 277 q 115 168 115 213 q 121 127 115 144 q 126 109 126 111 m 179 450 l 118 386 l 58 450 l 118 518 l 179 450 m 329 450 l 268 386 l 207 450 l 268 518 l 329 450 z "},"":{"ha":261,"x_min":-3,"x_max":304,"o":"m 288 107 q 208 18 249 49 q 135 -14 168 -14 q 89 6 98 -14 q 79 75 79 26 l 79 199 q 18 94 58 145 l -3 111 q 79 281 60 199 l 147 317 l 147 102 q 151 49 147 62 q 170 36 155 36 q 268 125 200 36 l 288 107 m 304 534 l 125 386 l 94 386 l 157 534 l 304 534 z "},"":{"ha":261,"x_min":-3,"x_max":288,"o":"m 288 107 q 208 18 249 49 q 135 -14 168 -14 q 89 6 98 -14 q 79 75 79 26 l 79 199 q 18 94 58 145 l -3 111 q 79 281 60 199 l 147 317 l 147 102 q 151 49 147 62 q 170 36 155 36 q 268 125 200 36 l 288 107 m 189 386 l 159 386 l 31 534 l 165 534 l 189 386 z "},"":{"ha":261,"x_min":-32,"x_max":288,"o":"m 288 107 q 208 18 249 49 q 135 -14 168 -14 q 89 6 98 -14 q 79 75 79 26 l 79 199 q 18 94 58 145 l -3 111 q 79 281 60 199 l 147 317 l 147 102 q 151 49 147 62 q 170 36 155 36 q 268 125 200 36 l 288 107 m 269 386 l 238 386 l 121 464 l -1 386 l -32 386 l 121 566 l 269 386 z "},"":{"ha":261,"x_min":-20,"x_max":288,"o":"m 288 107 q 208 18 249 49 q 135 -14 168 -14 q 89 6 98 -14 q 79 75 79 26 l 79 199 q 18 94 58 145 l -3 111 q 79 281 60 199 l 147 317 l 147 102 q 151 49 147 62 q 170 36 155 36 q 268 125 200 36 l 288 107 m 101 450 l 40 386 l -20 450 l 40 518 l 101 450 m 251 450 l 190 386 l 129 450 l 190 518 l 251 450 z "},"":{"ha":463,"x_min":-3,"x_max":490,"o":"m 490 107 q 334 -14 408 -14 q 296 2 309 -14 q 283 75 283 18 l 283 231 q 261 267 283 267 q 238 258 250 267 q 213 234 227 250 q 175 181 199 218 q 150 140 150 144 l 150 18 l 82 -25 l 82 203 q 18 94 61 149 l -3 111 q 83 285 66 208 l 150 317 l 150 191 q 230 287 199 262 q 292 311 260 311 q 336 291 320 311 q 351 191 351 271 l 351 100 q 354 50 351 63 q 371 36 357 36 q 469 125 404 36 l 490 107 m 387 503 q 278 400 315 400 q 225 423 267 400 q 170 447 184 447 q 111 401 149 447 l 77 401 q 145 488 122 467 q 187 509 168 509 q 245 485 210 509 q 297 461 282 461 q 351 503 315 461 l 387 503 z "},"":{"ha":435,"x_min":-4,"x_max":461,"o":"m -4 111 q 140 273 84 237 q 258 310 197 310 q 351 279 317 310 q 385 192 385 248 q 321 47 385 113 q 172 -18 257 -18 q 84 15 117 -18 q 52 98 52 47 q 56 147 52 125 q 18 94 45 136 l -4 111 m 216 26 q 298 64 268 26 q 329 163 329 101 q 300 247 329 216 q 225 277 272 277 q 146 241 176 277 q 117 140 117 205 q 216 26 117 26 m 461 107 q 359 5 407 30 q 262 -25 311 -20 l 257 -9 q 439 123 369 16 l 461 107 m 418 534 l 239 386 l 208 386 l 271 534 l 418 534 z "},"":{"ha":435,"x_min":-4,"x_max":461,"o":"m -4 111 q 140 273 84 237 q 258 310 197 310 q 351 279 317 310 q 385 192 385 248 q 321 47 385 113 q 172 -18 257 -18 q 84 15 117 -18 q 52 98 52 47 q 56 147 52 125 q 18 94 45 136 l -4 111 m 216 26 q 298 64 268 26 q 329 163 329 101 q 300 247 329 216 q 225 277 272 277 q 146 241 176 277 q 117 140 117 205 q 216 26 117 26 m 461 107 q 359 5 407 30 q 262 -25 311 -20 l 257 -9 q 439 123 369 16 l 461 107 m 303 386 l 273 386 l 144 534 l 279 534 l 303 386 z "},"":{"ha":435,"x_min":-4,"x_max":461,"o":"m -4 111 q 140 273 84 237 q 258 310 197 310 q 351 279 317 310 q 385 192 385 248 q 321 47 385 113 q 172 -18 257 -18 q 84 15 117 -18 q 52 98 52 47 q 56 147 52 125 q 18 94 45 136 l -4 111 m 216 26 q 298 64 268 26 q 329 163 329 101 q 300 247 329 216 q 225 277 272 277 q 146 241 176 277 q 117 140 117 205 q 216 26 117 26 m 461 107 q 359 5 407 30 q 262 -25 311 -20 l 257 -9 q 439 123 369 16 l 461 107 m 382 386 l 352 386 l 235 464 l 113 386 l 82 386 l 235 566 l 382 386 z "},"":{"ha":435,"x_min":-4,"x_max":461,"o":"m -4 111 q 140 273 84 237 q 258 310 197 310 q 351 279 317 310 q 385 192 385 248 q 321 47 385 113 q 172 -18 257 -18 q 84 15 117 -18 q 52 98 52 47 q 56 147 52 125 q 18 94 45 136 l -4 111 m 216 26 q 298 64 268 26 q 329 163 329 101 q 300 247 329 216 q 225 277 272 277 q 146 241 176 277 q 117 140 117 205 q 216 26 117 26 m 461 107 q 359 5 407 30 q 262 -25 311 -20 l 257 -9 q 439 123 369 16 l 461 107 m 215 450 l 154 386 l 94 450 l 154 518 l 215 450 m 365 450 l 304 386 l 243 450 l 304 518 l 365 450 z "},"":{"ha":435,"x_min":-4,"x_max":461,"o":"m -4 111 q 140 273 84 237 q 258 310 197 310 q 351 279 317 310 q 385 192 385 248 q 321 47 385 113 q 172 -18 257 -18 q 84 15 117 -18 q 52 98 52 47 q 56 147 52 125 q 18 94 45 136 l -4 111 m 216 26 q 298 64 268 26 q 329 163 329 101 q 300 247 329 216 q 225 277 272 277 q 146 241 176 277 q 117 140 117 205 q 216 26 117 26 m 461 107 q 359 5 407 30 q 262 -25 311 -20 l 257 -9 q 439 123 369 16 l 461 107 m 373 503 q 264 400 301 400 q 211 423 252 400 q 155 447 170 447 q 97 401 134 447 l 62 401 q 131 488 108 467 q 173 509 153 509 q 231 485 195 509 q 283 461 268 461 q 337 503 300 461 l 373 503 z "},"":{"ha":478,"x_min":-3,"x_max":505,"o":"m 505 107 q 349 -14 423 -14 q 310 3 323 -14 q 297 75 297 20 l 297 132 q 194 2 224 24 q 138 -20 164 -20 q 95 -1 110 -20 q 79 87 79 18 l 79 199 q 20 96 50 134 l -3 111 q 79 286 58 198 l 147 321 l 147 75 q 150 40 147 49 q 167 31 153 31 q 206 54 182 31 q 263 127 230 77 q 297 183 297 178 l 297 286 l 366 321 l 366 109 q 369 51 366 66 q 386 36 372 36 q 485 125 419 36 l 505 107 m 404 534 l 225 386 l 195 386 l 257 534 l 404 534 z "},"":{"ha":478,"x_min":-3,"x_max":505,"o":"m 505 107 q 349 -14 423 -14 q 310 3 323 -14 q 297 75 297 20 l 297 132 q 194 2 224 24 q 138 -20 164 -20 q 95 -1 110 -20 q 79 87 79 18 l 79 199 q 20 96 50 134 l -3 111 q 79 286 58 198 l 147 321 l 147 75 q 150 40 147 49 q 167 31 153 31 q 206 54 182 31 q 263 127 230 77 q 297 183 297 178 l 297 286 l 366 321 l 366 109 q 369 51 366 66 q 386 36 372 36 q 485 125 419 36 l 505 107 m 290 386 l 259 386 l 131 534 l 266 534 l 290 386 z "},"":{"ha":478,"x_min":-3,"x_max":505,"o":"m 505 107 q 349 -14 423 -14 q 310 3 323 -14 q 297 75 297 20 l 297 132 q 194 2 224 24 q 138 -20 164 -20 q 95 -1 110 -20 q 79 87 79 18 l 79 199 q 20 96 50 134 l -3 111 q 79 286 58 198 l 147 321 l 147 75 q 150 40 147 49 q 167 31 153 31 q 206 54 182 31 q 263 127 230 77 q 297 183 297 178 l 297 286 l 366 321 l 366 109 q 369 51 366 66 q 386 36 372 36 q 485 125 419 36 l 505 107 m 368 386 l 338 386 l 221 464 l 98 386 l 68 386 l 221 566 l 368 386 z "},"":{"ha":478,"x_min":-3,"x_max":505,"o":"m 505 107 q 349 -14 423 -14 q 310 3 323 -14 q 297 75 297 20 l 297 132 q 194 2 224 24 q 138 -20 164 -20 q 95 -1 110 -20 q 79 87 79 18 l 79 199 q 20 96 50 134 l -3 111 q 79 286 58 198 l 147 321 l 147 75 q 150 40 147 49 q 167 31 153 31 q 206 54 182 31 q 263 127 230 77 q 297 183 297 178 l 297 286 l 366 321 l 366 109 q 369 51 366 66 q 386 36 372 36 q 485 125 419 36 l 505 107 m 201 450 l 140 386 l 81 450 l 140 518 l 201 450 m 351 450 l 290 386 l 229 450 l 290 518 l 351 450 z "},"":{"ha":608,"x_min":52,"x_max":557,"o":"m 549 564 q 557 515 557 533 q 549 465 557 498 q 318 500 437 493 q 330 362 318 444 l 343 286 l 332 83 l 318 -191 l 290 -191 l 277 85 l 265 286 l 278 362 q 290 500 290 444 q 60 465 172 493 q 52 515 52 498 q 60 564 52 531 q 290 529 166 538 q 256 789 275 696 q 304 798 285 798 q 353 789 323 798 q 318 529 332 689 q 549 564 452 539 z "},"":{"ha":478,"x_min":46,"x_max":432,"o":"m 239 965 q 375 909 318 965 q 432 774 432 852 q 375 639 432 695 q 239 583 318 583 q 103 639 160 583 q 46 774 46 695 q 103 909 46 852 q 239 965 160 965 m 239 621 q 346 665 302 621 q 390 774 390 710 q 346 883 390 838 q 239 928 302 928 q 132 883 176 928 q 87 774 87 838 q 132 665 87 710 q 239 621 176 621 z "},"":{"ha":507,"x_min":74,"x_max":453,"o":"m 453 300 q 292 203 378 205 l 292 113 l 258 113 l 258 205 q 121 282 169 224 q 74 429 74 340 q 123 576 74 513 q 258 653 173 640 l 258 722 l 292 722 l 292 656 q 390 624 354 653 q 427 562 427 595 q 412 531 427 543 q 372 518 398 518 q 345 525 345 518 q 357 536 345 528 q 371 562 371 545 q 349 601 371 583 q 292 624 328 620 l 292 236 q 427 315 361 236 l 453 300 m 258 243 l 258 623 q 167 561 199 610 q 135 436 135 512 q 258 243 135 289 z "},"":{"ha":521,"x_min":5,"x_max":532,"o":"m 532 82 q 345 -20 448 -20 q 201 18 285 -20 q 87 -21 135 -21 q 28 -5 52 -21 q 5 33 5 10 q 35 86 5 64 q 110 109 65 109 q 225 81 155 109 q 249 143 249 112 q 178 286 249 189 l 61 286 l 61 318 l 157 318 q 87 469 87 414 q 151 596 87 543 q 311 650 215 650 q 432 618 388 650 q 476 538 476 587 q 451 475 476 498 q 386 452 426 452 q 317 469 347 452 l 330 489 q 359 485 348 485 q 399 501 384 485 q 415 541 415 517 q 382 597 415 574 q 300 621 349 621 q 193 587 238 621 q 149 507 149 553 q 168 441 149 477 q 253 318 187 405 l 415 318 l 415 286 l 269 286 q 296 186 296 242 q 256 68 296 124 q 397 31 366 31 q 511 100 454 31 l 532 82 m 168 33 q 78 64 98 64 q 48 56 60 64 q 37 37 37 48 q 50 16 37 24 q 82 8 62 8 q 168 33 131 8 z "},"":{"ha":652,"x_min":142,"x_max":574,"o":"m 410 636 q 464 587 424 587 q 509 608 492 587 q 526 656 526 629 q 491 728 526 696 q 403 760 455 760 q 293 715 338 760 q 248 603 248 671 q 283 505 248 538 q 410 419 318 471 q 523 350 503 368 q 559 304 544 333 q 574 248 574 276 q 454 117 574 152 q 547 -37 547 48 q 492 -156 547 -106 q 351 -205 436 -205 q 202 -154 259 -205 q 144 -32 144 -102 q 170 36 144 7 q 232 64 195 64 q 296 36 271 64 q 322 -43 321 7 l 311 -43 q 248 7 290 7 q 204 -12 222 7 q 186 -60 186 -31 q 224 -137 186 -106 q 319 -168 263 -168 q 423 -127 379 -168 q 467 -22 467 -85 q 430 83 467 45 q 302 176 394 120 q 191 249 210 233 q 157 294 172 266 q 142 351 142 321 q 172 432 142 397 q 257 481 201 467 q 172 635 172 561 q 224 750 172 703 q 361 798 277 798 q 513 747 452 798 q 574 629 574 697 q 547 559 574 587 q 479 530 520 530 q 418 556 441 530 q 396 623 396 582 l 396 636 l 410 636 m 396 155 q 471 194 444 163 q 498 264 498 224 q 475 334 498 300 q 311 444 451 368 q 222 332 222 408 q 262 243 222 283 q 396 155 301 204 z "},"":{"ha":390,"x_min":72,"x_max":318,"o":"m 195 582 q 282 548 247 582 q 318 458 318 515 q 279 374 318 413 q 195 335 240 335 q 108 371 144 335 q 72 458 72 408 q 107 548 72 515 q 195 582 143 582 z "},"":{"ha":665,"x_min":-7,"x_max":673,"o":"m 673 928 l 625 928 q 579 904 595 928 q 564 807 564 881 l 564 -311 l 514 -311 l 514 916 l 382 916 l 382 -311 l 330 -311 l 330 422 q 71 498 149 424 q -7 688 -7 572 q 77 883 -7 812 q 310 954 161 954 l 673 954 l 673 928 z "},"":{"ha":521,"x_min":1,"x_max":550,"o":"m 201 383 q 406 110 406 258 q 374 22 406 56 q 298 -12 342 -12 q 182 62 238 -12 l 237 119 l 252 107 l 249 86 q 266 40 249 60 q 309 21 283 21 q 348 40 332 21 q 364 87 364 59 q 161 319 364 209 l 157 315 l 157 -304 l 89 -314 l 89 220 q 21 98 64 157 l 1 117 q 27 161 15 139 q 64 233 40 182 q 89 292 89 283 l 89 568 q 139 734 89 671 q 271 796 190 796 q 325 776 305 796 q 345 722 345 755 q 201 383 345 613 m 157 375 q 255 559 221 471 q 289 701 289 648 q 277 749 289 731 q 243 766 264 766 q 180 721 203 766 q 157 591 157 676 l 157 375 m 550 111 q 368 -20 471 -14 l 364 -5 q 528 125 445 7 l 550 111 z "},"":{"ha":1055,"x_min":56,"x_max":1002,"o":"m 529 920 q 863 781 724 920 q 1002 447 1002 642 q 863 113 1002 252 q 529 -26 724 -26 q 195 113 334 -26 q 56 447 56 252 q 195 781 56 642 q 529 920 334 920 m 529 -4 q 847 128 714 -4 q 979 446 979 260 q 847 765 979 633 q 529 897 715 897 q 211 764 344 897 q 78 446 78 631 q 210 128 78 260 q 529 -4 342 -4 m 798 165 l 669 165 q 616 240 669 168 l 472 440 l 415 440 l 415 278 q 431 196 415 214 q 501 176 446 178 l 501 165 l 265 165 l 265 175 l 268 175 q 331 192 314 175 q 347 253 347 208 l 347 635 q 331 711 347 692 q 265 730 315 730 l 265 737 l 447 737 q 553 733 519 737 q 620 710 587 729 q 671 660 653 690 q 689 593 689 630 q 530 453 689 470 l 650 292 q 727 201 701 223 q 798 176 753 179 l 798 165 m 415 454 l 441 454 q 569 493 525 454 q 614 602 614 531 q 577 690 614 657 q 478 722 541 722 q 415 708 448 722 l 415 454 z "},"":{"ha":1071,"x_min":62,"x_max":1008,"o":"m 534 917 q 869 778 730 917 q 1008 444 1008 640 q 869 110 1008 250 q 534 -29 730 -29 q 201 110 340 -29 q 62 444 62 249 q 201 778 62 639 q 534 917 340 917 m 534 -7 q 853 125 720 -7 q 986 443 986 258 q 853 762 986 629 q 534 895 720 895 q 217 762 349 895 q 85 443 85 629 q 217 125 85 257 q 534 -7 349 -7 m 768 294 q 541 155 684 155 q 338 238 420 155 q 257 449 257 321 q 342 666 257 578 q 543 753 427 753 q 639 734 593 753 q 701 717 686 717 q 724 727 713 717 q 734 754 734 737 l 743 754 l 755 570 l 747 570 q 550 736 699 736 q 397 657 456 736 q 338 456 338 579 q 398 256 338 328 q 561 184 459 184 q 764 297 680 184 l 768 294 z "},"":{"ha":1258,"x_min":35,"x_max":1236,"o":"m 479 793 l 473 793 l 473 798 q 445 867 467 846 q 361 888 423 888 l 292 888 l 292 497 q 307 401 292 422 q 371 380 323 380 l 371 372 l 143 372 l 143 380 q 208 402 193 380 q 224 497 224 424 l 224 888 l 153 888 q 65 862 87 888 q 39 793 43 837 l 35 793 l 35 907 l 479 907 l 479 793 m 1236 372 l 1017 372 l 1017 380 q 1082 402 1069 382 q 1096 484 1096 422 l 1096 865 l 873 372 l 871 372 l 642 854 l 642 456 q 655 397 642 413 q 721 380 669 382 l 721 372 l 541 372 l 541 380 q 604 398 589 382 q 618 461 618 414 l 618 819 q 600 879 618 863 q 541 899 582 895 l 541 907 l 690 907 l 895 467 l 1093 907 l 1236 907 l 1236 899 q 1173 881 1188 897 q 1158 825 1158 864 l 1158 463 q 1175 398 1158 415 q 1236 380 1192 381 l 1236 372 z "},"":{"ha":463,"x_min":222,"x_max":432,"o":"m 432 534 l 253 386 l 222 386 l 285 534 l 432 534 z "},"":{"ha":463,"x_min":109,"x_max":379,"o":"m 229 450 l 168 386 l 109 450 l 168 518 l 229 450 m 379 450 l 318 386 l 257 450 l 318 518 l 379 450 z "},"":{"ha":762,"x_min":21,"x_max":750,"o":"m 750 189 l 329 189 l 204 -35 l 136 4 l 239 189 l 21 189 l 21 265 l 282 265 l 389 458 l 21 458 l 21 534 l 432 534 l 558 762 l 627 724 l 521 534 l 750 534 l 750 458 l 479 458 l 371 265 l 750 265 l 750 189 z "},"":{"ha":1157,"x_min":53,"x_max":1153,"o":"m 1153 846 q 997 791 1088 791 q 869 817 949 791 q 760 843 791 843 q 664 802 702 843 q 627 696 627 761 q 668 582 627 625 q 774 539 709 539 q 846 553 803 539 l 848 521 q 647 431 720 506 q 574 250 574 356 q 635 84 574 148 q 789 21 697 21 q 963 93 889 21 q 1038 254 1038 165 q 1001 360 1038 315 q 913 404 965 404 q 839 373 869 404 q 808 304 808 342 q 824 262 808 279 q 861 244 840 244 q 908 267 884 244 l 925 258 q 839 183 902 183 q 787 210 808 183 q 766 272 766 237 q 823 394 766 338 q 958 449 879 449 q 1060 410 1021 449 q 1099 309 1099 370 q 1006 86 1099 185 q 777 -12 914 -12 q 602 28 667 -12 q 497 157 536 69 q 256 -12 391 -12 q 110 62 166 -12 q 53 249 53 137 q 136 564 53 406 q 349 818 218 721 q 606 916 480 916 q 722 872 663 916 q 848 900 794 900 q 972 874 895 900 q 1078 848 1050 848 q 1143 865 1107 848 l 1153 846 m 696 505 q 546 661 546 539 q 644 831 546 752 q 543 859 595 859 q 264 698 391 859 q 138 314 138 537 q 182 118 138 191 q 300 45 227 45 q 404 86 354 45 q 485 203 454 127 q 482 241 482 224 q 536 393 482 323 q 696 505 591 462 z "},"":{"ha":796,"x_min":53,"x_max":770,"o":"m 770 879 q 673 764 748 856 q 732 509 732 644 q 622 141 732 294 q 367 -12 512 -12 q 158 93 249 -12 q 66 -33 103 22 l 53 8 l 139 115 q 64 395 64 239 q 281 869 64 680 l 294 848 q 172 679 216 782 q 129 465 129 575 q 203 197 129 310 l 599 715 q 427 833 520 833 q 326 784 370 833 q 281 668 281 735 q 300 604 281 628 q 347 581 320 581 q 389 602 372 581 q 407 652 407 623 q 406 676 407 667 l 422 684 q 435 628 435 648 q 408 554 435 585 q 343 524 382 524 q 275 556 302 524 q 249 642 249 589 q 322 822 249 743 q 482 901 395 901 q 659 790 578 901 l 753 924 l 770 879 m 218 175 q 424 56 313 56 q 603 163 534 56 q 671 450 671 271 q 614 689 671 574 l 218 175 z "},"":{"ha":990,"x_min":36,"x_max":954,"o":"m 443 453 q 551 604 491 568 q 694 640 610 640 q 879 561 804 640 q 954 357 954 482 q 879 151 954 231 q 717 72 803 72 q 601 115 652 72 q 489 267 550 157 q 269 109 410 109 q 102 179 168 109 q 36 358 36 250 q 96 536 36 465 q 244 607 157 607 q 345 578 298 607 q 443 453 392 550 m 509 315 q 600 179 552 222 q 720 136 648 136 q 860 198 805 136 q 916 357 916 260 q 859 519 916 452 q 724 587 802 587 q 657 573 686 587 q 607 531 629 558 q 564 452 585 503 l 509 315 m 416 378 l 424 400 q 243 546 359 546 q 121 494 168 546 q 74 359 74 442 q 119 219 74 276 q 229 161 164 161 q 331 205 285 161 q 416 378 376 250 z "},"":{"ha":854,"x_min":89,"x_max":764,"o":"m 764 396 l 447 396 l 447 83 l 403 83 l 403 396 l 89 396 l 89 441 l 403 441 l 403 757 l 447 757 l 447 441 l 764 441 l 764 396 m 764 -113 l 89 -113 l 89 -66 l 764 -66 l 764 -113 z "},"":{"ha":762,"x_min":40,"x_max":730,"o":"m 730 163 l 40 482 l 40 568 l 730 888 l 730 802 l 129 525 l 730 249 l 730 163 m 730 0 l 40 0 l 40 76 l 730 76 l 730 0 z "},"":{"ha":762,"x_min":40,"x_max":730,"o":"m 730 482 l 40 163 l 40 249 l 642 525 l 40 802 l 40 888 l 730 568 l 730 482 m 730 0 l 40 0 l 40 76 l 730 76 l 730 0 z "},"":{"ha":782,"x_min":-11,"x_max":782,"o":"m 782 692 q 737 629 770 654 q 677 663 711 663 q 549 548 610 663 q 481 289 488 434 l 501 289 q 599 300 549 289 l 586 264 q 501 256 549 256 l 479 256 l 476 212 l 515 212 q 599 222 557 212 l 586 189 q 503 179 553 179 l 475 179 l 475 158 q 479 -4 475 37 l 397 -21 q 407 161 407 84 l 407 179 q 350 183 361 183 q 282 174 311 183 l 294 208 q 357 215 318 215 q 407 214 390 215 l 407 257 q 347 258 389 258 l 334 258 q 289 253 308 258 l 300 288 q 351 296 331 296 q 377 294 358 296 q 406 292 397 292 q 330 606 397 492 q 176 721 264 721 q 69 669 111 721 q 26 547 26 618 q 59 450 26 489 q 136 411 91 411 q 200 439 173 411 q 227 500 227 468 q 214 539 227 524 q 184 554 202 554 q 150 530 161 554 l 134 538 q 189 604 142 604 q 236 578 218 604 q 254 513 254 553 q 212 402 254 451 q 115 354 169 354 q 25 399 60 354 q -11 519 -11 445 q 51 695 -11 619 q 191 771 113 771 q 373 671 298 771 q 468 387 448 570 q 574 633 501 547 q 720 720 648 720 q 782 692 759 720 z "},"":{"ha":636,"x_min":56,"x_max":582,"o":"m 582 129 q 473 -20 570 -20 q 389 106 399 -20 q 211 -17 295 -17 q 115 61 146 -17 l 115 32 q 117 -85 115 -68 q 130 -150 119 -102 q 140 -224 140 -197 q 128 -269 140 -251 q 98 -286 116 -286 q 68 -268 80 -286 q 56 -221 56 -250 q 60 -190 56 -214 q 89 164 89 -53 l 89 386 l 161 386 l 161 197 q 185 82 161 112 q 258 52 208 52 q 389 144 307 52 l 389 386 l 461 386 l 461 158 q 505 41 461 41 q 536 58 524 41 q 558 129 547 75 l 582 129 z "},"":{"ha":686,"x_min":45,"x_max":675,"o":"m 200 760 l 170 760 q 427 965 258 965 q 605 879 536 965 q 675 624 675 793 q 563 180 675 381 q 273 -21 452 -21 q 106 41 168 -21 q 45 207 45 102 q 158 492 45 369 q 418 615 271 615 q 629 486 568 615 l 632 486 q 639 612 639 584 q 576 800 639 731 q 404 868 513 868 q 200 760 273 868 m 618 427 q 425 579 563 579 q 231 450 304 579 q 158 179 158 321 q 195 62 158 106 q 292 18 231 18 q 481 129 384 18 q 618 427 578 239 z "},"":{"ha":990,"x_min":20,"x_max":965,"o":"m 965 161 q 928 -1 943 77 q 905 -150 913 -79 q 836 -139 863 -142 q 799 -135 809 -135 l 100 -135 q 60 -137 86 -135 q 20 -139 33 -139 l 504 414 l 22 1044 q 106 1037 70 1040 q 167 1035 142 1035 l 857 1035 l 865 814 l 838 814 q 802 909 817 883 q 747 954 787 936 q 696 968 726 963 q 625 972 666 972 l 260 972 l 639 475 l 231 4 l 746 4 q 866 39 832 4 q 933 161 901 75 l 965 161 z "},"":{"ha":1143,"x_min":35,"x_max":1116,"o":"m 1116 -140 l 689 -140 l 689 -109 q 797 -81 770 -109 q 824 4 824 -53 l 824 966 l 326 966 l 326 4 q 353 -81 326 -53 q 461 -109 380 -109 l 461 -140 l 35 -140 l 35 -109 q 143 -81 117 -109 q 170 4 170 -53 l 170 873 q 137 977 170 942 q 37 1011 104 1011 l 37 1043 l 1113 1043 l 1113 1011 q 1014 977 1046 1011 q 981 873 981 942 l 981 4 q 1007 -81 981 -53 q 1116 -109 1033 -109 l 1116 -140 z "},"":{"ha":762,"x_min":14,"x_max":736,"o":"m 736 210 q 685 41 732 104 q 571 -22 637 -22 q 477 40 517 -22 q 437 231 437 102 q 438 285 437 259 q 441 334 439 311 l 465 557 l 309 557 q 242 53 268 134 q 153 -27 216 -27 q 103 -6 127 -27 q 79 50 79 15 q 129 137 79 81 q 183 239 178 193 l 224 557 l 158 557 q 105 544 131 557 q 66 513 79 530 l 37 469 l 14 469 q 95 624 47 572 q 207 676 144 676 l 725 676 l 725 557 l 550 557 q 537 394 542 475 q 533 231 533 313 q 559 140 533 175 q 623 106 585 106 q 673 125 647 106 q 703 176 699 144 q 706 199 705 191 q 707 210 707 208 l 736 210 z "},"":{"ha":380,"x_min":7,"x_max":408,"o":"m 408 1194 q 388 1150 408 1167 q 337 1133 368 1133 q 296 1150 312 1133 q 267 1167 281 1167 q 248 1157 254 1167 q 241 1128 241 1147 q 255 954 241 1105 q 268 581 268 804 q 248 99 268 238 q 194 -92 227 -39 q 148 -134 176 -120 q 90 -149 120 -149 q 32 -125 57 -149 q 7 -67 7 -101 q 24 -23 7 -41 q 68 -5 41 -5 q 112 -27 91 -5 q 142 -50 134 -50 q 169 -19 159 -50 q 179 85 179 11 q 175 218 179 110 q 171 600 171 327 q 182 1033 171 926 q 210 1179 194 1139 q 257 1249 230 1226 q 314 1272 284 1272 q 380 1250 353 1272 q 408 1194 408 1228 z "},"":{"ha":361,"x_min":17,"x_max":350,"o":"m 350 779 q 295 714 315 728 q 256 701 275 701 q 214 732 219 701 q 132 699 174 699 q 52 785 57 699 q 43 774 50 783 q 36 765 37 767 l 17 777 q 180 895 105 895 q 222 884 198 895 l 265 904 l 265 741 q 275 730 265 730 q 332 791 287 730 l 350 779 m 214 774 l 214 863 q 176 876 194 876 q 130 853 149 876 q 110 796 110 831 q 158 736 110 736 q 214 774 190 736 z "},"":{"ha":334,"x_min":20,"x_max":321,"o":"m 20 782 q 193 903 103 903 q 258 883 234 903 q 282 831 282 864 q 238 744 282 783 q 138 705 195 705 q 76 725 98 705 q 53 777 53 744 l 54 790 l 39 770 l 20 782 m 165 728 q 216 752 197 728 q 235 812 235 776 q 172 880 235 880 q 123 859 141 880 q 104 799 104 837 q 121 747 104 766 q 165 728 137 728 m 321 779 q 184 699 271 706 l 182 707 q 302 791 262 732 l 321 779 z "},"":{"ha":1067,"x_min":47,"x_max":1021,"o":"m 1021 0 l 612 0 l 634 211 q 787 347 743 251 q 831 559 831 442 q 759 812 831 713 q 534 911 686 911 q 310 812 382 911 q 237 559 237 713 q 281 347 237 442 q 435 211 326 251 l 457 0 l 47 0 l 47 225 l 68 225 q 95 160 79 180 q 160 140 111 140 l 379 140 l 376 179 q 145 329 215 223 q 75 554 75 435 q 205 843 75 730 q 534 956 336 956 q 863 843 733 956 q 994 554 994 730 q 924 329 994 435 q 692 179 854 223 l 690 140 l 909 140 q 974 160 958 140 q 1001 225 990 180 l 1021 225 l 1021 0 z "},"":{"ha":608,"x_min":-5,"x_max":635,"o":"m 635 106 q 422 -16 545 -16 q 302 71 333 -16 q 163 -14 235 -14 q 82 24 115 -14 q 50 117 50 62 l 52 140 q 17 92 43 130 l -5 107 q 129 266 78 224 q 237 307 180 307 q 307 290 273 307 l 364 319 l 364 267 q 469 315 418 315 q 520 298 501 315 q 539 252 539 280 q 382 82 539 172 q 471 35 412 35 q 615 125 551 35 l 635 106 m 298 121 l 298 256 q 233 285 262 285 q 159 246 193 285 q 125 154 125 207 q 146 78 125 109 q 201 47 168 47 q 270 79 242 47 q 298 121 298 111 m 370 107 q 454 165 424 132 q 484 229 484 198 q 440 278 484 278 q 383 246 407 278 q 359 170 359 214 q 370 107 359 146 z "},"":{"ha":435,"x_min":-4,"x_max":461,"o":"m 408 307 q 364 265 393 294 q 389 193 389 231 q 323 46 389 111 q 172 -18 257 -18 q 100 4 131 -18 q 45 -56 81 -14 l 36 -20 q 79 20 59 -2 q 52 100 52 50 q 56 149 52 132 q 18 94 36 123 l -4 110 q 135 271 81 233 q 254 310 190 310 q 345 285 308 310 q 399 340 392 332 l 408 307 m 302 243 q 225 277 271 277 q 145 242 174 277 q 117 143 117 207 q 132 71 117 102 l 302 243 m 146 50 q 216 26 174 26 q 298 64 269 26 q 328 165 328 101 q 318 220 328 197 l 146 50 m 461 107 q 262 -25 386 -11 l 257 -9 q 440 123 369 16 l 461 107 z "},"":{"ha":593,"x_min":160,"x_max":553,"o":"m 444 347 l 390 279 l 332 353 l 389 419 l 444 347 m 376 -262 l 375 -245 q 399 -182 375 -207 q 463 -157 424 -157 q 527 -185 502 -157 q 553 -253 553 -213 q 496 -369 553 -321 q 350 -418 440 -418 q 213 -374 266 -418 q 160 -265 160 -330 q 184 -172 160 -219 q 290 -58 208 -125 q 393 45 374 10 q 412 113 412 79 q 397 157 412 138 q 363 176 382 176 q 322 150 342 176 l 309 158 q 336 208 315 190 q 383 227 357 227 q 435 203 416 227 q 454 138 454 180 q 434 57 454 98 q 349 -49 414 16 q 262 -150 285 -115 q 240 -235 240 -184 q 281 -340 240 -300 q 385 -380 322 -380 q 471 -353 437 -380 q 505 -282 505 -325 q 447 -214 505 -214 q 386 -261 406 -214 l 376 -262 z "},"":{"ha":390,"x_min":127,"x_max":253,"o":"m 252 354 l 192 283 l 136 354 l 193 419 l 252 354 m 253 -406 q 195 -418 217 -418 q 127 -404 160 -418 q 165 -151 161 -281 l 176 237 l 207 237 l 216 -160 q 253 -406 221 -311 z "},"":{"ha":926,"x_min":100,"x_max":825,"o":"m 825 136 l 786 136 l 786 467 l 100 467 l 100 505 l 825 505 l 825 136 z "},"":{"ha":762,"x_min":14,"x_max":715,"o":"m 715 1267 l 507 -53 l 170 644 l 36 579 l 14 625 l 216 725 l 490 165 l 667 1274 l 715 1267 z "},"":{"ha":550,"x_min":-170,"x_max":597,"o":"m 597 677 l 529 643 l 522 656 q 533 690 533 673 q 515 736 533 719 q 472 753 498 753 q 414 707 441 753 q 353 555 387 661 q 317 433 320 450 q 315 428 317 431 l 272 289 l 298 288 q 393 300 344 288 l 380 260 q 300 253 338 253 l 261 253 l 161 -68 q 107 -222 130 -166 q 48 -315 85 -277 q -43 -353 12 -353 q -170 -254 -127 -353 l -98 -218 l -90 -231 q -103 -271 -103 -255 q -45 -323 -103 -323 q 14 -276 -10 -323 q 90 -64 39 -229 l 191 253 l 138 253 q 78 250 123 253 l 90 283 q 144 290 118 290 l 201 289 l 267 488 q 328 659 306 607 q 383 743 349 711 q 469 775 416 775 q 597 677 566 775 z "},"":{"ha":762,"x_min":35,"x_max":728,"o":"m 693 593 l 728 593 q 663 431 713 488 q 536 375 612 375 q 330 454 471 375 q 187 507 236 507 q 66 380 86 507 l 35 380 q 98 542 48 485 q 221 599 148 599 q 294 586 253 599 q 446 513 334 572 q 576 471 526 471 q 693 593 674 471 m 693 330 l 728 330 q 663 169 713 225 q 536 113 612 113 q 354 178 471 113 q 187 244 237 244 q 66 118 86 244 l 35 118 q 98 278 48 222 q 221 335 148 335 q 297 320 253 335 q 446 250 341 306 q 576 208 526 208 q 693 330 674 208 z "},"":{"ha":850,"x_min":8,"x_max":844,"o":"m 453 956 l 844 0 l 8 0 l 453 956 m 403 718 l 100 68 l 672 68 l 403 718 z "},"":{"ha":534,"x_min":64,"x_max":472,"o":"m 282 28 l 272 17 l 64 216 l 272 401 l 282 389 l 164 216 l 282 28 m 472 28 l 463 17 l 253 216 l 463 401 l 472 389 l 354 216 l 472 28 z "},"":{"ha":534,"x_min":64,"x_max":472,"o":"m 282 216 l 74 17 l 64 28 l 182 216 l 64 389 l 74 401 l 282 216 m 472 216 l 262 17 l 253 28 l 371 216 l 253 389 l 262 401 l 472 216 z "},"":{"ha":1389,"x_min":175,"x_max":1215,"o":"m 289 45 l 229 -11 l 175 45 l 235 102 l 289 45 m 753 45 l 692 -11 l 637 45 l 699 102 l 753 45 m 1215 45 l 1156 -11 l 1101 45 l 1161 102 l 1215 45 z "},"":{"ha":347,"x_min":0,"x_max":0,"o":""},"":{"ha":708,"x_min":47,"x_max":774,"o":"m 478 135 q 250 -14 376 -14 q 104 60 160 -14 q 47 250 47 134 q 130 565 47 408 q 342 819 212 722 q 597 916 473 916 q 726 862 678 916 q 774 717 774 808 q 564 380 774 505 l 564 102 q 569 48 564 62 q 596 35 574 35 q 714 123 646 35 l 736 106 q 651 12 689 39 q 571 -16 613 -16 q 501 9 525 -16 q 478 135 477 35 m 564 418 q 679 523 639 456 q 718 672 718 591 q 668 808 718 758 q 534 859 618 859 q 257 698 382 859 q 132 314 132 537 q 176 117 132 192 q 290 43 220 43 q 332 49 311 43 q 373 68 353 56 q 412 100 393 81 q 454 155 431 119 q 478 201 478 191 l 478 349 q 439 346 455 346 q 327 388 368 346 q 285 498 285 429 q 326 630 285 566 q 439 728 367 694 l 449 713 q 346 524 346 627 q 379 426 346 463 q 468 390 412 390 l 478 390 l 478 664 l 564 710 l 564 418 m 578 978 l 547 978 l 419 1126 l 554 1126 l 578 978 z "},"":{"ha":708,"x_min":47,"x_max":774,"o":"m 478 135 q 250 -14 376 -14 q 104 60 160 -14 q 47 250 47 134 q 130 565 47 408 q 342 819 212 722 q 597 916 473 916 q 726 862 678 916 q 774 717 774 808 q 564 380 774 505 l 564 102 q 569 48 564 62 q 596 35 574 35 q 714 123 646 35 l 736 106 q 651 12 689 39 q 571 -16 613 -16 q 501 9 525 -16 q 478 135 477 35 m 564 418 q 679 523 639 456 q 718 672 718 591 q 668 808 718 758 q 534 859 618 859 q 257 698 382 859 q 132 314 132 537 q 176 117 132 192 q 290 43 220 43 q 332 49 311 43 q 373 68 353 56 q 412 100 393 81 q 454 155 431 119 q 478 201 478 191 l 478 349 q 439 346 455 346 q 327 388 368 346 q 285 498 285 429 q 326 630 285 566 q 439 728 367 694 l 449 713 q 346 524 346 627 q 379 426 346 463 q 468 390 412 390 l 478 390 l 478 664 l 564 710 l 564 418 m 648 1094 q 539 991 576 991 q 486 1015 528 991 q 431 1038 445 1038 q 372 993 410 1038 l 338 993 q 406 1079 383 1058 q 448 1100 429 1100 q 507 1076 471 1100 q 558 1053 543 1053 q 612 1094 576 1053 l 648 1094 z "},"":{"ha":796,"x_min":65,"x_max":732,"o":"m 472 593 q 488 530 488 566 q 451 444 488 479 q 367 408 415 408 q 271 456 311 408 q 232 585 232 505 q 311 807 232 712 q 484 901 390 901 q 658 790 585 901 q 732 509 732 680 q 624 142 732 296 q 367 -12 515 -12 q 153 101 241 -12 q 65 390 65 214 q 282 869 65 674 l 297 850 q 131 465 131 700 q 219 175 131 294 q 425 56 308 56 q 600 160 530 56 q 671 437 671 264 q 596 723 671 612 q 425 833 521 833 q 317 778 360 833 q 273 637 273 722 q 304 526 273 569 q 382 482 334 482 q 439 504 418 482 q 460 561 460 526 q 458 587 460 578 l 472 593 m 553 1094 q 444 991 481 991 q 391 1015 433 991 q 336 1038 350 1038 q 277 993 315 1038 l 243 993 q 311 1079 288 1058 q 353 1100 334 1100 q 412 1076 376 1100 q 463 1053 448 1053 q 517 1094 481 1053 l 553 1094 z "},"":{"ha":1331,"x_min":69,"x_max":1324,"o":"m 1324 850 q 1157 791 1233 791 q 1060 815 1123 791 q 960 839 997 839 q 882 807 911 839 q 852 722 852 776 q 894 594 852 643 q 1002 545 935 545 q 1046 550 1017 545 l 1046 522 q 820 430 895 514 q 745 244 745 347 q 802 89 745 151 q 954 26 859 26 q 1131 96 1057 26 q 1206 253 1206 165 q 1170 360 1206 316 q 1082 404 1134 404 q 1010 375 1041 404 q 979 309 979 347 q 993 262 979 279 q 1029 245 1006 245 q 1075 271 1049 245 l 1095 257 q 1010 184 1063 184 q 957 211 977 184 q 937 281 937 237 q 994 404 937 353 q 1129 454 1050 454 q 1229 413 1190 454 q 1267 302 1267 372 q 1167 84 1267 179 q 935 -11 1067 -11 q 656 189 726 -11 q 372 -9 536 -9 q 157 101 245 -9 q 69 389 69 212 q 122 655 69 540 q 286 869 175 770 l 302 850 q 178 680 222 782 q 135 463 135 578 q 226 174 135 289 q 431 58 317 58 q 605 164 535 58 q 675 441 675 270 q 601 723 675 612 q 425 833 526 833 q 321 778 364 833 q 278 639 278 722 q 308 527 278 569 q 387 485 338 485 q 444 507 423 485 q 464 571 464 530 l 464 589 l 478 595 q 490 533 490 559 q 455 445 490 481 q 371 410 419 410 q 275 458 313 410 q 236 586 236 507 q 313 807 236 712 q 485 901 390 901 q 663 790 589 901 q 736 505 736 679 q 729 419 736 473 q 885 522 798 492 q 782 689 782 589 q 862 837 782 779 q 1034 896 943 896 q 1143 872 1072 896 q 1236 848 1215 848 q 1307 869 1263 848 l 1324 850 z "},"":{"ha":636,"x_min":-1,"x_max":663,"o":"m 663 106 q 452 -14 574 -14 q 336 61 367 -14 q 176 -16 265 -16 q 87 17 121 -16 q 54 102 54 49 q 60 151 54 125 q 22 100 48 138 l -1 114 q 139 275 83 235 q 258 315 195 315 q 379 254 337 315 q 503 315 439 315 q 552 300 534 315 q 570 258 570 284 q 408 85 570 171 q 496 36 435 36 q 642 123 581 36 l 663 106 m 218 29 q 302 66 271 29 q 334 165 334 104 q 306 249 334 219 q 231 278 279 278 q 149 243 179 278 q 119 147 119 209 q 218 29 119 29 m 399 110 q 514 232 514 164 q 500 264 514 250 q 467 278 486 278 q 412 247 435 278 q 389 170 389 216 q 399 110 389 155 z "},"":{"ha":507,"x_min":26,"x_max":473,"o":"m 473 149 l 26 149 l 26 187 l 473 187 l 473 149 z "},"":{"ha":1028,"x_min":32,"x_max":993,"o":"m 993 150 l 32 150 l 32 191 l 993 191 l 993 150 z "},"":{"ha":463,"x_min":66,"x_max":395,"o":"m 193 714 l 135 644 l 66 718 q 155 908 95 811 l 174 895 q 156 838 170 876 q 142 774 142 799 l 193 714 m 395 714 l 336 644 l 268 718 q 357 908 296 808 l 375 895 q 357 838 372 876 q 343 774 343 800 l 395 714 z "},"":{"ha":521,"x_min":66,"x_max":404,"o":"m 205 827 q 87 644 169 737 l 66 660 q 127 771 108 716 l 82 831 l 146 901 l 205 827 m 404 827 q 286 644 368 737 l 265 660 q 326 771 309 719 l 281 831 l 345 901 l 404 827 z "},"":{"ha":261,"x_min":66,"x_max":193,"o":"m 193 714 l 135 644 l 66 718 q 155 908 95 811 l 174 895 q 156 838 170 876 q 142 774 142 799 l 193 714 z "},"":{"ha":261,"x_min":66,"x_max":205,"o":"m 205 827 q 87 644 169 737 l 66 660 q 127 771 108 716 l 82 831 l 146 901 l 205 827 z "},"":{"ha":854,"x_min":90,"x_max":764,"o":"m 427 614 q 449 604 439 614 q 458 581 458 594 q 427 546 458 546 q 403 556 412 546 q 393 583 393 566 q 403 605 393 596 q 427 614 412 614 m 764 297 l 90 297 l 90 343 l 764 343 l 764 297 m 427 96 q 449 86 440 96 q 458 64 458 77 q 449 40 458 49 q 427 31 439 31 q 403 40 412 31 q 393 64 393 49 q 403 86 393 77 q 427 96 413 96 z "},"":{"ha":686,"x_min":31,"x_max":652,"o":"m 652 517 l 383 0 l 300 0 l 31 517 l 300 1035 l 383 1035 l 652 517 m 569 517 l 342 960 l 115 517 l 342 75 l 569 517 z "},"":{"ha":478,"x_min":1,"x_max":514,"o":"m 514 119 q 376 -9 441 1 l 376 -225 q 327 -359 376 -305 q 203 -414 277 -414 q 119 -392 161 -414 q 56 -332 78 -370 l 113 -268 l 122 -277 q 119 -302 119 -294 q 147 -359 119 -334 q 214 -385 174 -385 q 280 -352 256 -385 q 304 -260 304 -319 l 304 119 q 216 12 249 41 q 153 -17 184 -17 q 87 54 87 -17 l 87 214 q 21 98 62 155 l 1 117 q 87 289 67 220 l 160 325 l 160 57 q 179 33 160 33 l 186 33 q 304 175 211 33 l 304 289 l 376 325 l 376 31 q 492 136 422 35 l 514 119 m 201 450 l 140 386 l 81 450 l 140 518 l 201 450 m 351 450 l 290 386 l 229 450 l 290 518 l 351 450 z "},"":{"ha":970,"x_min":94,"x_max":878,"o":"m 854 636 q 835 522 835 607 q 856 307 835 452 q 878 82 878 162 q 772 -269 878 -132 q 526 -407 666 -407 q 398 -363 448 -407 q 349 -250 349 -319 q 389 -148 349 -189 q 488 -107 430 -107 q 562 -134 532 -107 q 591 -196 591 -160 q 572 -249 591 -225 q 518 -277 552 -272 l 507 -262 q 536 -212 536 -241 q 517 -173 536 -189 q 471 -157 498 -157 q 407 -186 434 -157 q 380 -257 380 -215 q 424 -343 380 -309 q 530 -378 468 -378 q 726 -272 644 -378 q 807 16 807 -165 q 779 288 807 102 q 532 29 669 29 q 434 72 473 29 q 396 183 396 114 q 408 274 396 223 q 464 435 419 326 q 520 596 509 544 q 532 689 532 648 q 483 817 532 770 q 353 864 433 864 q 199 799 262 864 q 136 644 136 734 q 172 536 136 577 q 265 494 208 494 q 347 525 315 494 q 379 599 379 556 q 363 644 379 625 q 325 663 347 663 q 278 629 294 663 l 267 635 l 267 637 q 287 692 267 672 q 339 713 308 713 q 388 685 369 713 q 407 612 407 656 q 359 490 407 542 q 243 437 311 437 q 135 484 176 437 q 94 608 94 531 q 179 814 94 727 q 385 901 263 901 q 543 838 483 901 q 603 668 603 774 q 570 510 603 595 l 517 352 q 467 161 467 203 q 489 93 467 119 q 545 66 511 66 q 597 78 572 66 q 645 114 622 90 q 690 171 668 137 q 743 273 711 205 q 775 351 775 341 l 774 433 q 775 493 774 466 q 780 545 777 519 q 790 595 783 571 q 814 620 793 606 q 854 636 834 633 m 621 1042 l 559 978 l 500 1042 l 559 1110 l 621 1042 m 770 1042 l 709 978 l 648 1042 l 709 1110 l 770 1042 z "},"":{"ha":131,"x_min":-232,"x_max":364,"o":"m 364 657 l -184 -16 l -232 -16 l 315 657 l 364 657 z "},"":{"ha":514,"x_min":-5,"x_max":524,"o":"m 524 526 q 446 485 484 497 q 325 615 437 615 q 180 549 241 615 q 100 370 120 482 l 444 370 l 437 339 l 96 339 q 93 294 93 309 l 93 292 l 428 292 l 421 261 l 94 261 q 311 16 109 16 q 432 72 370 16 l 449 57 q 272 -21 380 -21 q 95 48 157 -21 q 33 248 33 118 l 33 261 l -5 261 l 1 292 l 36 292 q 41 339 39 324 l -5 339 l 1 370 l 49 370 q 166 576 83 500 q 358 652 250 652 q 524 526 480 652 z "},"":{"ha":347,"x_min":64,"x_max":282,"o":"m 282 28 l 272 17 l 64 216 l 272 401 l 282 389 l 164 216 l 282 28 z "},"":{"ha":347,"x_min":64,"x_max":282,"o":"m 282 201 l 74 17 l 64 29 l 182 201 l 64 390 l 74 401 l 282 201 z "},"":{"ha":534,"x_min":-98,"x_max":562,"o":"m 562 107 q 404 -14 483 -14 q 368 0 381 -14 q 354 75 354 14 l 354 199 q 265 54 321 117 q 157 -11 210 -8 l 157 -245 q 114 -371 157 -323 q 7 -418 71 -418 q -98 -359 -60 -418 l -43 -304 l -32 -314 q -36 -334 -36 -327 q -20 -378 -36 -359 q 22 -396 -3 -396 q 89 -261 89 -396 l 89 -11 q 20 20 55 -5 q 50 78 26 49 q 89 40 69 47 l 89 220 q 21 98 62 154 l 1 117 q 27 160 14 137 q 64 233 40 182 q 89 292 89 284 l 89 596 q 141 736 89 675 q 261 798 193 798 q 319 778 298 798 q 340 724 340 758 q 303 570 340 658 q 157 311 265 482 l 157 28 q 228 59 196 32 q 299 152 259 86 q 354 281 338 218 l 422 317 l 422 100 q 427 46 422 56 q 443 36 432 36 q 542 125 471 36 l 562 107 m 157 378 q 285 707 285 584 q 240 768 285 768 q 182 733 208 768 q 157 642 157 698 l 157 378 m 446 449 l 399 389 l 350 449 l 399 507 l 446 449 z "},"":{"ha":534,"x_min":-98,"x_max":621,"o":"m 157 28 q 198 38 181 30 q 237 69 216 45 q 282 127 259 92 q 330 212 306 162 q 354 281 354 262 l 354 543 q 415 719 354 640 q 543 798 476 798 q 599 772 578 798 q 621 708 621 747 q 578 567 621 655 q 422 304 535 479 l 422 109 q 426 51 422 66 q 443 36 429 36 q 542 125 475 36 l 562 107 q 407 -14 482 -14 q 368 2 381 -14 q 354 75 354 17 l 354 199 q 274 64 330 138 q 157 -11 218 -9 l 157 -245 q 114 -371 157 -323 q 7 -418 71 -418 q -98 -359 -60 -418 l -43 -304 l -32 -314 q -36 -334 -36 -327 q -20 -378 -36 -359 q 22 -396 -3 -396 q 89 -261 89 -396 l 89 -11 q 20 20 55 -5 q 50 78 26 49 q 89 40 69 47 l 89 220 q 21 98 62 154 l 1 117 q 27 160 14 137 q 64 233 40 182 q 89 292 89 284 l 89 596 q 141 736 89 675 q 261 798 193 798 q 319 778 298 798 q 340 724 340 758 q 303 570 340 658 q 157 311 265 482 l 157 28 m 157 378 q 285 707 285 584 q 240 768 285 768 q 182 733 208 768 q 157 642 157 698 l 157 378 m 422 354 q 540 568 511 499 q 570 688 570 637 q 524 764 570 764 q 452 715 481 764 q 422 585 422 667 l 422 354 z "},"":{"ha":608,"x_min":52,"x_max":557,"o":"m 549 107 q 557 58 557 74 q 549 9 557 43 q 318 43 454 33 q 353 -216 330 -94 q 304 -225 320 -225 q 256 -216 277 -225 q 290 43 275 -124 q 60 9 165 35 q 52 58 52 43 q 60 107 52 76 q 290 72 160 82 q 278 212 290 132 l 265 286 l 278 361 q 290 500 290 439 q 60 465 172 493 q 52 515 52 498 q 60 564 52 531 q 290 529 163 539 q 256 789 275 696 q 304 798 285 798 q 353 789 331 798 q 318 529 332 680 q 549 564 442 538 q 557 515 557 531 q 549 465 557 498 q 318 500 437 493 q 330 361 318 440 l 343 286 l 330 211 q 318 72 318 132 q 549 107 445 82 z "},"":{"ha":261,"x_min":74,"x_max":196,"o":"m 196 321 l 135 256 l 74 318 l 135 386 l 196 321 z "},"":{"ha":261,"x_min":45,"x_max":191,"o":"m 191 33 q 58 -134 149 -70 l 45 -118 q 115 -21 87 -75 l 66 32 l 126 100 l 191 33 z "},"":{"ha":463,"x_min":46,"x_max":392,"o":"m 192 33 q 60 -134 150 -70 l 46 -118 q 117 -21 89 -75 l 68 32 l 127 100 l 192 33 m 392 33 q 260 -134 351 -68 l 245 -118 q 317 -21 289 -75 l 268 32 l 328 100 l 392 33 z "},"":{"ha":1303,"x_min":106,"x_max":1196,"o":"m 254 657 q 361 606 319 657 q 403 481 403 555 q 360 355 403 406 q 254 304 318 304 q 148 356 191 304 q 106 481 106 407 q 148 606 106 555 q 254 657 190 657 m 254 326 q 322 366 298 326 q 347 481 347 406 q 322 595 347 555 q 254 635 298 635 q 186 595 211 635 q 161 481 161 555 q 186 366 161 406 q 254 326 210 326 m 635 656 l 334 -12 l 294 -12 l 597 657 l 635 656 m 673 340 q 780 290 738 340 q 822 164 822 239 q 780 39 822 89 q 673 -11 738 -11 q 567 40 610 -11 q 525 164 525 90 q 567 290 525 239 q 673 340 609 340 m 673 11 q 742 51 717 11 q 766 164 766 90 q 742 278 766 238 q 673 318 718 318 q 605 278 630 318 q 581 164 581 238 q 605 50 581 90 q 673 11 629 11 m 1047 340 q 1154 290 1112 340 q 1196 164 1196 239 q 1154 39 1196 90 q 1047 -11 1112 -11 q 941 40 983 -11 q 899 164 899 90 q 941 290 899 239 q 1047 340 983 340 m 1047 11 q 1115 51 1090 11 q 1140 164 1140 90 q 1115 278 1140 238 q 1047 318 1090 318 q 979 278 1004 318 q 954 164 954 238 q 979 50 954 90 q 1047 11 1003 11 z "},"":{"ha":708,"x_min":47,"x_max":774,"o":"m 478 135 q 250 -14 376 -14 q 104 60 160 -14 q 47 250 47 134 q 130 565 47 408 q 342 819 212 722 q 597 916 473 916 q 726 862 678 916 q 774 717 774 808 q 564 380 774 505 l 564 102 q 569 48 564 62 q 596 35 574 35 q 714 123 646 35 l 736 106 q 651 12 689 39 q 571 -16 613 -16 q 501 9 525 -16 q 478 135 477 35 m 564 418 q 679 523 639 456 q 718 672 718 591 q 668 808 718 758 q 534 859 618 859 q 257 698 382 859 q 132 314 132 537 q 176 117 132 192 q 290 43 220 43 q 332 49 311 43 q 373 68 353 56 q 412 100 393 81 q 454 155 431 119 q 478 201 478 191 l 478 349 q 439 346 455 346 q 327 388 368 346 q 285 498 285 429 q 326 630 285 566 q 439 728 367 694 l 449 713 q 346 524 346 627 q 379 426 346 463 q 468 390 412 390 l 478 390 l 478 664 l 564 710 l 564 418 m 657 978 l 627 978 l 510 1056 l 387 978 l 357 978 l 510 1158 l 657 978 z "},"":{"ha":724,"x_min":47,"x_max":717,"o":"m 717 850 q 561 794 652 794 q 439 819 511 794 q 328 844 368 844 q 229 804 266 844 q 192 696 192 763 q 233 583 192 626 q 335 541 273 541 q 411 551 361 541 l 415 524 q 213 432 286 507 q 140 249 140 357 q 201 85 140 147 q 357 24 261 24 q 530 95 457 24 q 603 256 603 166 q 566 361 603 317 q 479 406 530 406 q 406 375 438 406 q 374 307 374 345 q 390 261 374 280 q 428 243 406 243 q 473 268 454 243 l 489 260 q 407 186 473 186 q 352 210 373 186 q 332 273 332 234 q 389 396 332 342 q 524 450 446 450 q 626 409 587 450 q 664 307 664 368 q 571 87 664 187 q 335 -14 477 -14 q 127 61 207 -14 q 47 243 47 135 q 104 398 47 327 q 265 507 161 469 q 111 664 111 541 q 205 828 111 755 q 416 901 299 901 q 538 876 465 901 q 648 851 612 851 q 707 868 675 851 l 717 850 m 549 978 l 519 978 l 402 1056 l 279 978 l 249 978 l 402 1158 l 549 978 z "},"":{"ha":708,"x_min":47,"x_max":774,"o":"m 478 135 q 250 -14 376 -14 q 104 60 160 -14 q 47 250 47 134 q 130 565 47 408 q 342 819 212 722 q 597 916 473 916 q 726 862 678 916 q 774 717 774 808 q 564 380 774 505 l 564 102 q 569 48 564 62 q 596 35 574 35 q 714 123 646 35 l 736 106 q 651 12 689 39 q 571 -16 613 -16 q 501 9 525 -16 q 478 135 477 35 m 564 418 q 679 523 639 456 q 718 672 718 591 q 668 808 718 758 q 534 859 618 859 q 257 698 382 859 q 132 314 132 537 q 176 117 132 192 q 290 43 220 43 q 332 49 311 43 q 373 68 353 56 q 412 100 393 81 q 454 155 431 119 q 478 201 478 191 l 478 349 q 439 346 455 346 q 327 388 368 346 q 285 498 285 429 q 326 630 285 566 q 439 728 367 694 l 449 713 q 346 524 346 627 q 379 426 346 463 q 468 390 412 390 l 478 390 l 478 664 l 564 710 l 564 418 m 693 1126 l 514 978 l 484 978 l 546 1126 l 693 1126 z "},"":{"ha":724,"x_min":47,"x_max":717,"o":"m 717 850 q 561 794 652 794 q 439 819 511 794 q 328 844 368 844 q 229 804 266 844 q 192 696 192 763 q 233 583 192 626 q 335 541 273 541 q 411 551 361 541 l 415 524 q 213 432 286 507 q 140 249 140 357 q 201 85 140 147 q 357 24 261 24 q 530 95 457 24 q 603 256 603 166 q 566 361 603 317 q 479 406 530 406 q 406 375 438 406 q 374 307 374 345 q 390 261 374 280 q 428 243 406 243 q 473 268 454 243 l 489 260 q 407 186 473 186 q 352 210 373 186 q 332 273 332 234 q 389 396 332 342 q 524 450 446 450 q 626 409 587 450 q 664 307 664 368 q 571 87 664 187 q 335 -14 477 -14 q 127 61 207 -14 q 47 243 47 135 q 104 398 47 327 q 265 507 161 469 q 111 664 111 541 q 205 828 111 755 q 416 901 299 901 q 538 876 465 901 q 648 851 612 851 q 707 868 675 851 l 717 850 m 382 1042 l 321 978 l 261 1042 l 321 1110 l 382 1042 m 532 1042 l 471 978 l 410 1042 l 471 1110 l 532 1042 z "},"":{"ha":724,"x_min":47,"x_max":717,"o":"m 717 850 q 561 794 652 794 q 439 819 511 794 q 328 844 368 844 q 229 804 266 844 q 192 696 192 763 q 233 583 192 626 q 335 541 273 541 q 411 551 361 541 l 415 524 q 213 432 286 507 q 140 249 140 357 q 201 85 140 147 q 357 24 261 24 q 530 95 457 24 q 603 256 603 166 q 566 361 603 317 q 479 406 530 406 q 406 375 438 406 q 374 307 374 345 q 390 261 374 280 q 428 243 406 243 q 473 268 454 243 l 489 260 q 407 186 473 186 q 352 210 373 186 q 332 273 332 234 q 389 396 332 342 q 524 450 446 450 q 626 409 587 450 q 664 307 664 368 q 571 87 664 187 q 335 -14 477 -14 q 127 61 207 -14 q 47 243 47 135 q 104 398 47 327 q 265 507 161 469 q 111 664 111 541 q 205 828 111 755 q 416 901 299 901 q 538 876 465 901 q 648 851 612 851 q 707 868 675 851 l 717 850 m 470 978 l 439 978 l 311 1126 l 446 1126 l 470 978 z "},"":{"ha":724,"x_min":47,"x_max":693,"o":"m 541 671 q 600 686 577 686 q 660 662 637 686 q 682 600 682 638 q 587 440 682 510 q 627 281 627 356 q 535 74 627 162 q 309 -14 444 -14 q 135 37 204 -14 q 47 182 66 87 q 147 215 83 208 l 151 203 q 142 163 142 187 q 196 58 142 101 q 326 16 250 16 q 486 82 421 16 q 551 241 551 148 q 503 403 551 309 q 441 399 475 399 q 272 456 336 399 q 207 603 207 513 q 325 813 207 724 q 650 903 442 903 l 656 886 q 536 809 578 863 q 494 694 494 756 q 574 467 494 613 q 635 574 635 510 q 615 633 635 610 q 572 657 595 657 q 543 653 564 657 l 541 671 m 579 875 q 361 793 435 859 q 288 623 288 728 q 335 481 288 535 q 460 428 382 428 l 486 429 q 433 631 433 553 q 579 875 433 778 m 693 1126 l 514 978 l 484 978 l 546 1126 l 693 1126 z "},"":{"ha":724,"x_min":47,"x_max":682,"o":"m 541 671 q 600 686 577 686 q 660 662 637 686 q 682 600 682 638 q 587 440 682 510 q 627 281 627 356 q 535 74 627 162 q 309 -14 444 -14 q 135 37 204 -14 q 47 182 66 87 q 147 215 83 208 l 151 203 q 142 163 142 187 q 196 58 142 101 q 326 16 250 16 q 486 82 421 16 q 551 241 551 148 q 503 403 551 309 q 441 399 475 399 q 272 456 336 399 q 207 603 207 513 q 325 813 207 724 q 650 903 442 903 l 656 886 q 536 809 578 863 q 494 694 494 756 q 574 467 494 613 q 635 574 635 510 q 615 633 635 610 q 572 657 595 657 q 543 653 564 657 l 541 671 m 579 875 q 361 793 435 859 q 288 623 288 728 q 335 481 288 535 q 460 428 382 428 l 486 429 q 433 631 433 553 q 579 875 433 778 m 657 978 l 627 978 l 510 1056 l 387 978 l 357 978 l 510 1158 l 657 978 z "},"":{"ha":724,"x_min":47,"x_max":682,"o":"m 541 671 q 600 686 577 686 q 660 662 637 686 q 682 600 682 638 q 587 440 682 510 q 627 281 627 356 q 535 74 627 162 q 309 -14 444 -14 q 135 37 204 -14 q 47 182 66 87 q 147 215 83 208 l 151 203 q 142 163 142 187 q 196 58 142 101 q 326 16 250 16 q 486 82 421 16 q 551 241 551 148 q 503 403 551 309 q 441 399 475 399 q 272 456 336 399 q 207 603 207 513 q 325 813 207 724 q 650 903 442 903 l 656 886 q 536 809 578 863 q 494 694 494 756 q 574 467 494 613 q 635 574 635 510 q 615 633 635 610 q 572 657 595 657 q 543 653 564 657 l 541 671 m 579 875 q 361 793 435 859 q 288 623 288 728 q 335 481 288 535 q 460 428 382 428 l 486 429 q 433 631 433 553 q 579 875 433 778 m 490 1042 l 429 978 l 370 1042 l 429 1110 l 490 1042 m 640 1042 l 579 978 l 518 1042 l 579 1110 l 640 1042 z "},"":{"ha":724,"x_min":47,"x_max":682,"o":"m 541 671 q 600 686 577 686 q 660 662 637 686 q 682 600 682 638 q 587 440 682 510 q 627 281 627 356 q 535 74 627 162 q 309 -14 444 -14 q 135 37 204 -14 q 47 182 66 87 q 147 215 83 208 l 151 203 q 142 163 142 187 q 196 58 142 101 q 326 16 250 16 q 486 82 421 16 q 551 241 551 148 q 503 403 551 309 q 441 399 475 399 q 272 456 336 399 q 207 603 207 513 q 325 813 207 724 q 650 903 442 903 l 656 886 q 536 809 578 863 q 494 694 494 756 q 574 467 494 613 q 635 574 635 510 q 615 633 635 610 q 572 657 595 657 q 543 653 564 657 l 541 671 m 579 875 q 361 793 435 859 q 288 623 288 728 q 335 481 288 535 q 460 428 382 428 l 486 429 q 433 631 433 553 q 579 875 433 778 m 578 978 l 547 978 l 419 1126 l 554 1126 l 578 978 z "},"":{"ha":796,"x_min":65,"x_max":732,"o":"m 472 593 q 488 530 488 566 q 451 444 488 479 q 367 408 415 408 q 271 456 311 408 q 232 585 232 505 q 311 807 232 712 q 484 901 390 901 q 658 790 585 901 q 732 509 732 680 q 624 142 732 296 q 367 -12 515 -12 q 153 101 241 -12 q 65 390 65 214 q 282 869 65 674 l 297 850 q 131 465 131 700 q 219 175 131 294 q 425 56 308 56 q 600 160 530 56 q 671 437 671 264 q 596 723 671 612 q 425 833 521 833 q 317 778 360 833 q 273 637 273 722 q 304 526 273 569 q 382 482 334 482 q 439 504 418 482 q 460 561 460 526 q 458 587 460 578 l 472 593 m 598 1126 l 419 978 l 389 978 l 451 1126 l 598 1126 z "},"":{"ha":796,"x_min":65,"x_max":732,"o":"m 472 593 q 488 530 488 566 q 451 444 488 479 q 367 408 415 408 q 271 456 311 408 q 232 585 232 505 q 311 807 232 712 q 484 901 390 901 q 658 790 585 901 q 732 509 732 680 q 624 142 732 296 q 367 -12 515 -12 q 153 101 241 -12 q 65 390 65 214 q 282 869 65 674 l 297 850 q 131 465 131 700 q 219 175 131 294 q 425 56 308 56 q 600 160 530 56 q 671 437 671 264 q 596 723 671 612 q 425 833 521 833 q 317 778 360 833 q 273 637 273 722 q 304 526 273 569 q 382 482 334 482 q 439 504 418 482 q 460 561 460 526 q 458 587 460 578 l 472 593 m 563 978 l 532 978 l 416 1056 l 293 978 l 262 978 l 416 1158 l 563 978 z "},"":{"ha":419,"x_min":94,"x_max":326,"o":"m 94 469 q 128 558 94 524 q 208 593 162 593 q 294 558 262 593 q 326 469 326 523 q 294 381 326 416 q 211 346 262 346 q 127 381 159 346 q 94 469 94 416 z "},"":{"ha":796,"x_min":65,"x_max":732,"o":"m 472 593 q 488 530 488 566 q 451 444 488 479 q 367 408 415 408 q 271 456 311 408 q 232 585 232 505 q 311 807 232 712 q 484 901 390 901 q 658 790 585 901 q 732 509 732 680 q 624 142 732 296 q 367 -12 515 -12 q 153 101 241 -12 q 65 390 65 214 q 282 869 65 674 l 297 850 q 131 465 131 700 q 219 175 131 294 q 425 56 308 56 q 600 160 530 56 q 671 437 671 264 q 596 723 671 612 q 425 833 521 833 q 317 778 360 833 q 273 637 273 722 q 304 526 273 569 q 382 482 334 482 q 439 504 418 482 q 460 561 460 526 q 458 587 460 578 l 472 593 m 484 978 l 453 978 l 325 1126 l 460 1126 l 484 978 z "},"":{"ha":1028,"x_min":92,"x_max":1065,"o":"m 1065 123 q 868 -12 979 -12 q 768 42 804 -12 q 714 221 732 97 q 515 -17 621 -17 q 431 27 465 -17 q 396 139 396 71 q 408 243 396 184 q 465 423 420 302 q 520 594 509 544 q 530 681 530 644 q 483 818 530 767 q 354 868 435 868 q 201 800 262 868 q 139 637 139 731 q 177 528 139 571 q 269 485 216 485 q 351 517 315 485 q 387 593 387 550 q 371 642 387 622 q 329 661 354 661 q 282 618 294 661 l 269 621 q 268 642 268 629 q 287 696 268 674 q 338 718 307 718 q 393 688 371 718 q 415 615 415 658 q 364 484 415 539 q 241 428 313 428 q 135 475 178 428 q 92 597 92 523 q 179 812 92 719 q 380 905 266 905 q 546 838 481 905 q 611 660 611 770 q 600 567 611 620 q 544 397 589 515 q 488 224 500 280 q 476 126 476 169 q 494 58 476 83 q 538 33 512 33 q 606 78 569 33 q 674 197 643 122 q 711 293 706 271 q 723 370 715 314 q 822 702 751 581 q 964 822 892 822 q 1002 806 985 822 q 1019 778 1019 791 q 972 718 1019 767 q 922 765 945 765 q 829 648 874 765 q 785 353 785 530 q 818 120 785 202 q 908 37 851 37 q 974 60 944 37 q 1044 140 1004 83 l 1065 123 m 918 1126 l 739 978 l 708 978 l 770 1126 l 918 1126 z "},"":{"ha":1028,"x_min":92,"x_max":1065,"o":"m 1065 123 q 868 -12 979 -12 q 768 42 804 -12 q 714 221 732 97 q 515 -17 621 -17 q 431 27 465 -17 q 396 139 396 71 q 408 243 396 184 q 465 423 420 302 q 520 594 509 544 q 530 681 530 644 q 483 818 530 767 q 354 868 435 868 q 201 800 262 868 q 139 637 139 731 q 177 528 139 571 q 269 485 216 485 q 351 517 315 485 q 387 593 387 550 q 371 642 387 622 q 329 661 354 661 q 282 618 294 661 l 269 621 q 268 642 268 629 q 287 696 268 674 q 338 718 307 718 q 393 688 371 718 q 415 615 415 658 q 364 484 415 539 q 241 428 313 428 q 135 475 178 428 q 92 597 92 523 q 179 812 92 719 q 380 905 266 905 q 546 838 481 905 q 611 660 611 770 q 600 567 611 620 q 544 397 589 515 q 488 224 500 280 q 476 126 476 169 q 494 58 476 83 q 538 33 512 33 q 606 78 569 33 q 674 197 643 122 q 711 293 706 271 q 723 370 715 314 q 822 702 751 581 q 964 822 892 822 q 1002 806 985 822 q 1019 778 1019 791 q 972 718 1019 767 q 922 765 945 765 q 829 648 874 765 q 785 353 785 530 q 818 120 785 202 q 908 37 851 37 q 974 60 944 37 q 1044 140 1004 83 l 1065 123 m 882 978 l 852 978 l 735 1056 l 612 978 l 582 978 l 735 1158 l 882 978 z "},"":{"ha":1028,"x_min":92,"x_max":1065,"o":"m 1065 123 q 868 -12 979 -12 q 768 42 804 -12 q 714 221 732 97 q 515 -17 621 -17 q 431 27 465 -17 q 396 139 396 71 q 408 243 396 184 q 465 423 420 302 q 520 594 509 544 q 530 681 530 644 q 483 818 530 767 q 354 868 435 868 q 201 800 262 868 q 139 637 139 731 q 177 528 139 571 q 269 485 216 485 q 351 517 315 485 q 387 593 387 550 q 371 642 387 622 q 329 661 354 661 q 282 618 294 661 l 269 621 q 268 642 268 629 q 287 696 268 674 q 338 718 307 718 q 393 688 371 718 q 415 615 415 658 q 364 484 415 539 q 241 428 313 428 q 135 475 178 428 q 92 597 92 523 q 179 812 92 719 q 380 905 266 905 q 546 838 481 905 q 611 660 611 770 q 600 567 611 620 q 544 397 589 515 q 488 224 500 280 q 476 126 476 169 q 494 58 476 83 q 538 33 512 33 q 606 78 569 33 q 674 197 643 122 q 711 293 706 271 q 723 370 715 314 q 822 702 751 581 q 964 822 892 822 q 1002 806 985 822 q 1019 778 1019 791 q 972 718 1019 767 q 922 765 945 765 q 829 648 874 765 q 785 353 785 530 q 818 120 785 202 q 908 37 851 37 q 974 60 944 37 q 1044 140 1004 83 l 1065 123 m 803 978 l 772 978 l 644 1126 l 779 1126 l 803 978 z "},"":{"ha":261,"x_min":-3,"x_max":288,"o":"m 288 107 q 208 18 249 49 q 135 -14 168 -14 q 89 6 98 -14 q 79 75 79 26 l 79 199 q 18 94 58 145 l -3 111 q 79 281 60 199 l 147 317 l 147 102 q 151 49 147 62 q 170 36 155 36 q 268 125 200 36 l 288 107 z "},"":{"ha":463,"x_min":96,"x_max":396,"o":"m 396 386 l 366 386 l 249 464 l 126 386 l 96 386 l 249 566 l 396 386 z "},"":{"ha":463,"x_min":77,"x_max":387,"o":"m 387 503 q 278 400 315 400 q 225 423 267 400 q 170 447 184 447 q 111 401 149 447 l 77 401 q 145 488 122 467 q 187 509 168 509 q 245 485 210 509 q 297 461 282 461 q 351 503 315 461 l 387 503 z "},"":{"ha":463,"x_min":119,"x_max":345,"o":"m 345 421 l 119 421 l 119 486 l 345 486 l 345 421 z "},"":{"ha":463,"x_min":102,"x_max":379,"o":"m 378 553 l 379 530 q 342 427 379 467 q 241 387 305 387 q 102 553 104 387 l 127 553 q 239 456 135 456 q 354 553 353 456 l 378 553 z "},"":{"ha":463,"x_min":199,"x_max":319,"o":"m 319 450 l 258 386 l 199 450 l 258 518 l 319 450 z "},"":{"ha":463,"x_min":178,"x_max":355,"o":"m 283 567 q 335 547 315 567 q 355 496 355 528 q 323 421 355 453 q 245 389 290 389 q 196 408 214 389 q 178 460 178 428 q 209 535 178 504 q 283 567 239 567 m 262 418 q 309 481 309 418 q 267 538 309 538 q 233 520 245 538 q 220 473 220 502 q 232 434 220 450 q 262 418 244 418 z "},"":{"ha":463,"x_min":118,"x_max":294,"o":"m 233 -17 l 243 -17 q 280 -32 267 -17 q 294 -68 294 -46 q 262 -142 294 -105 q 127 -249 230 -178 l 118 -228 q 214 -118 214 -157 q 172 -74 214 -87 l 233 -17 z "},"":{"ha":463,"x_min":96,"x_max":503,"o":"m 306 534 l 126 386 l 96 386 l 158 534 l 306 534 m 503 534 l 323 386 l 293 386 l 355 534 l 503 534 z "},"":{"ha":463,"x_min":118,"x_max":345,"o":"m 345 -109 q 204 -195 273 -195 q 142 -169 167 -195 q 118 -103 118 -142 q 149 0 118 -66 l 187 0 q 179 -65 179 -39 q 197 -117 179 -96 q 244 -138 215 -138 q 325 -92 279 -138 l 345 -109 z "},"":{"ha":463,"x_min":104,"x_max":404,"o":"m 404 566 l 253 386 l 104 566 l 136 566 l 253 488 l 374 566 l 404 566 z "},"":{"ha":796,"x_min":66,"x_max":854,"o":"m 447 315 q 401 386 438 334 q 347 470 366 439 l 304 543 q 279 633 279 583 q 372 823 279 739 q 604 908 465 908 q 786 851 717 908 q 854 704 854 795 q 793 555 854 618 q 652 492 732 492 q 552 527 591 492 q 513 616 513 562 q 600 743 513 701 l 610 729 q 564 640 564 692 q 598 563 564 596 q 679 529 632 529 q 764 569 730 529 q 799 667 799 608 q 729 810 799 749 q 559 871 659 871 q 409 817 468 871 q 350 690 350 763 q 363 625 350 660 q 433 508 376 589 q 517 375 491 427 q 600 453 577 429 l 608 407 q 529 346 575 383 q 541 269 541 319 q 460 90 541 176 q 660 36 588 36 q 814 140 741 36 l 835 123 q 734 20 790 53 q 589 -14 677 -14 q 386 39 517 -14 q 196 -18 285 -18 q 104 3 141 -18 q 66 57 66 25 q 113 119 66 93 q 227 144 160 144 q 424 103 295 144 q 479 211 479 159 q 460 289 479 247 q 354 193 385 224 l 350 237 l 447 315 m 349 53 q 184 107 239 107 q 114 71 114 107 q 146 33 114 50 q 220 16 178 16 q 349 53 279 16 z "},"":{"ha":261,"x_min":-3,"x_max":343,"o":"m 79 289 l 79 543 q 140 719 79 640 q 268 798 201 798 q 323 773 303 798 q 343 708 343 749 q 184 363 343 610 l 227 392 q 289 439 256 412 l 293 404 l 241 370 l 147 304 l 147 109 q 151 51 147 66 q 168 36 154 36 q 267 125 199 36 l 288 107 q 127 -14 207 -14 q 92 2 104 -14 q 79 75 79 18 l 79 199 q 18 94 51 135 l -3 111 q 71 252 43 176 l 0 199 l -3 235 q 79 289 22 249 m 147 354 q 267 571 238 503 q 296 688 296 638 q 249 764 296 764 q 177 715 206 764 q 147 585 147 667 l 147 354 z "},"":{"ha":796,"x_min":49,"x_max":713,"o":"m 700 896 q 624 829 676 857 q 524 802 572 802 q 390 829 476 802 q 279 857 304 857 q 199 821 233 857 q 165 734 165 785 q 196 653 165 685 q 273 604 227 622 q 416 559 319 586 q 572 507 513 532 q 672 431 631 481 q 713 298 713 380 q 612 80 713 176 q 363 -16 511 -16 q 138 56 227 -16 q 49 225 49 127 q 101 346 49 298 q 236 395 153 395 q 383 347 323 395 q 443 233 443 299 q 412 160 443 189 q 338 131 381 131 q 231 197 266 131 l 248 207 q 304 180 273 180 q 360 204 338 180 q 382 262 382 227 q 345 336 382 307 q 256 366 308 366 q 154 321 195 366 q 114 214 114 276 q 186 73 114 132 q 368 14 258 14 q 564 87 486 14 q 642 260 642 161 q 605 370 642 328 q 518 433 569 412 q 378 479 468 454 q 237 526 288 505 q 152 587 186 547 q 118 692 118 627 q 188 843 118 780 q 350 907 258 907 q 472 884 393 907 q 587 863 552 863 q 688 908 645 863 l 700 896 m 570 1158 l 419 978 l 271 1158 l 302 1158 l 419 1080 l 540 1158 l 570 1158 z "},"":{"ha":361,"x_min":-3,"x_max":389,"o":"m 157 328 q 241 248 210 300 q 273 143 273 196 q 236 33 273 80 q 142 -14 199 -14 q 80 5 113 -14 q 22 61 47 24 q 83 117 43 94 l 89 110 q 87 90 87 103 q 108 38 87 61 q 154 16 128 16 q 206 42 186 16 q 227 110 227 69 q 126 260 227 194 l 68 169 q 18 94 34 113 l -3 111 q 135 361 66 214 l 151 359 l 157 328 m 389 107 q 205 -22 316 -12 l 201 -9 q 284 29 250 2 q 368 123 319 56 l 389 107 m 354 566 l 203 386 l 54 566 l 86 566 l 203 488 l 323 566 l 354 566 z "},"":{"ha":753,"x_min":109,"x_max":789,"o":"m 789 111 q 672 -9 739 30 q 533 -299 637 -189 q 347 -408 429 -408 q 280 -384 308 -408 q 252 -321 252 -359 q 306 -202 252 -261 q 597 -16 360 -144 q 603 52 603 21 q 542 215 603 161 q 379 138 444 138 q 329 179 329 138 q 380 247 329 216 q 496 278 431 278 q 554 267 522 278 q 667 555 667 389 q 595 776 667 690 q 424 861 524 861 q 247 774 323 861 q 170 575 170 686 q 213 428 170 488 q 318 368 256 368 q 407 407 367 368 q 447 501 447 446 q 427 564 447 540 q 376 589 406 589 q 330 562 345 589 l 317 572 q 400 646 338 646 q 467 613 439 646 q 494 532 494 581 q 432 389 494 454 q 289 323 370 323 q 160 381 211 323 q 109 534 109 439 q 217 791 109 684 q 468 899 326 899 q 664 821 586 899 q 742 616 742 743 q 704 437 742 523 q 581 256 666 352 q 677 56 677 195 l 676 31 q 766 127 721 62 l 789 111 m 511 231 q 465 240 491 240 q 408 227 432 240 q 385 197 385 214 q 407 182 385 182 q 458 195 427 182 q 511 231 489 208 m 593 -54 q 380 -194 448 -131 q 313 -318 313 -256 q 327 -356 313 -341 q 364 -371 341 -371 q 499 -282 429 -371 q 593 -54 569 -193 m 618 1158 l 467 978 l 318 1158 l 350 1158 l 467 1080 l 587 1158 l 618 1158 z "},"":{"ha":406,"x_min":-3,"x_max":432,"o":"m 432 107 q 321 -1 385 33 q 347 -132 347 -55 q 288 -328 347 -244 q 140 -412 229 -412 q 56 -383 93 -412 q 14 -313 20 -354 q 87 -269 42 -290 l 96 -278 q 90 -315 90 -293 q 110 -364 90 -345 q 157 -383 129 -383 q 247 -324 207 -383 q 286 -170 286 -265 q 256 -31 286 -94 q 171 64 226 31 q 98 18 133 18 q 62 46 62 18 q 91 88 62 71 q 163 104 119 104 l 168 104 q 277 256 238 189 q 187 236 237 236 q 114 250 144 236 q 18 94 72 166 l -3 111 q 117 328 42 176 q 233 286 186 286 q 330 326 285 286 l 347 314 q 196 96 295 217 q 307 22 265 79 q 411 123 363 53 l 432 107 m 146 75 l 129 75 q 104 68 119 75 q 90 49 90 60 q 102 40 90 40 q 126 50 113 40 q 146 75 139 59 m 376 566 l 225 386 l 77 566 l 109 566 l 225 488 l 346 566 l 376 566 z "},"":{"ha":665,"x_min":309,"x_max":357,"o":"m 357 406 l 309 406 l 309 892 l 357 892 l 357 406 m 357 -262 l 309 -262 l 309 225 l 357 225 l 357 -262 z "},"":{"ha":261,"x_min":36,"x_max":233,"o":"m 233 146 l 36 146 l 36 196 l 233 196 l 233 146 z "},"":{"ha":695,"x_min":-8,"x_max":703,"o":"m 703 1009 l -8 1009 l -8 1078 l 703 1078 l 703 1009 z "},"":{"ha":970,"x_min":78,"x_max":922,"o":"m 382 553 q 329 420 372 466 q 221 374 285 374 q 118 421 159 374 q 78 541 78 469 q 196 789 78 683 q 492 896 313 896 q 803 772 683 896 q 922 450 922 649 q 810 120 922 256 q 559 -16 699 -16 q 451 22 513 -16 q 346 61 390 61 q 236 -16 288 61 l 220 -5 q 329 119 246 60 q 440 226 412 178 q 468 353 468 273 q 464 424 468 383 q 390 419 433 424 l 415 457 l 460 456 q 454 558 454 504 q 486 694 454 642 q 589 778 518 747 l 597 762 q 525 619 525 711 q 545 454 525 602 l 559 454 q 703 461 626 454 l 677 421 q 549 425 631 425 l 549 395 q 506 245 549 309 q 354 111 463 180 l 387 113 q 522 77 465 113 q 632 41 581 41 q 788 142 718 41 q 857 392 857 243 q 735 719 857 587 q 437 851 612 851 q 214 772 302 851 q 125 581 125 693 q 159 480 125 519 q 244 441 193 441 q 364 557 332 441 l 382 553 z "},"":{"ha":419,"x_min":-4,"x_max":447,"o":"m 396 587 q 332 539 368 563 q 392 328 392 458 q 322 87 392 189 q 163 -14 253 -14 q 80 18 111 -14 q 49 103 49 50 q 50 142 49 133 l 18 97 l -4 113 q 250 318 134 318 q 346 265 314 318 q 350 313 350 300 q 283 500 350 422 q 207 444 209 449 l 196 475 q 262 522 221 500 q 160 562 214 562 q 92 543 124 562 q 182 629 92 629 q 314 564 250 629 q 382 621 354 590 l 396 587 m 199 36 q 292 90 252 36 q 332 203 332 143 q 308 266 332 243 q 249 289 285 289 q 155 241 197 289 q 114 136 114 193 q 137 65 114 94 q 199 36 160 36 m 447 107 q 342 5 389 28 q 248 -24 295 -18 l 243 -8 q 425 123 353 16 l 447 107 z "},"":{"ha":970,"x_min":94,"x_max":878,"o":"m 854 636 q 835 522 835 607 q 856 307 835 452 q 878 82 878 162 q 772 -269 878 -132 q 526 -407 666 -407 q 398 -363 448 -407 q 349 -250 349 -319 q 389 -148 349 -189 q 488 -107 430 -107 q 562 -134 532 -107 q 591 -196 591 -160 q 572 -249 591 -225 q 518 -277 552 -272 l 507 -262 q 536 -212 536 -241 q 517 -173 536 -189 q 471 -157 498 -157 q 407 -186 434 -157 q 380 -257 380 -215 q 424 -343 380 -309 q 530 -378 468 -378 q 726 -272 644 -378 q 807 16 807 -165 q 779 288 807 102 q 532 29 669 29 q 434 72 473 29 q 396 183 396 114 q 408 274 396 223 q 464 435 419 326 q 520 596 509 544 q 532 689 532 648 q 483 817 532 770 q 353 864 433 864 q 199 799 262 864 q 136 644 136 734 q 172 536 136 577 q 265 494 208 494 q 347 525 315 494 q 379 599 379 556 q 363 644 379 625 q 325 663 347 663 q 278 629 294 663 l 267 635 l 267 637 q 287 692 267 672 q 339 713 308 713 q 388 685 369 713 q 407 612 407 656 q 359 490 407 542 q 243 437 311 437 q 135 484 176 437 q 94 608 94 531 q 179 814 94 727 q 385 901 263 901 q 543 838 483 901 q 603 668 603 774 q 570 510 603 595 l 517 352 q 467 161 467 203 q 489 93 467 119 q 545 66 511 66 q 597 78 572 66 q 645 114 622 90 q 690 171 668 137 q 743 273 711 205 q 775 351 775 341 l 774 433 q 775 493 774 466 q 780 545 777 519 q 790 595 783 571 q 814 620 793 606 q 854 636 834 633 m 823 1126 l 644 978 l 613 978 l 675 1126 l 823 1126 z "},"":{"ha":478,"x_min":1,"x_max":514,"o":"m 514 119 q 376 -9 441 1 l 376 -225 q 327 -359 376 -305 q 203 -414 277 -414 q 119 -392 161 -414 q 56 -332 78 -370 l 113 -268 l 122 -277 q 119 -302 119 -294 q 147 -359 119 -334 q 214 -385 174 -385 q 280 -352 256 -385 q 304 -260 304 -319 l 304 119 q 216 12 249 41 q 153 -17 184 -17 q 87 54 87 -17 l 87 214 q 21 98 62 155 l 1 117 q 87 289 67 220 l 160 325 l 160 57 q 179 33 160 33 l 186 33 q 304 175 211 33 l 304 289 l 376 325 l 376 31 q 492 136 422 35 l 514 119 m 408 534 l 229 386 l 198 386 l 260 534 l 408 534 z "},"":{"ha":797,"x_min":25,"x_max":774,"o":"m 444 729 q 688 659 603 723 q 774 503 774 595 q 715 357 774 416 q 543 278 656 298 l 538 297 q 653 363 614 317 q 693 472 693 409 q 624 629 693 566 q 440 697 555 692 q 439 656 439 685 q 463 481 439 599 q 488 310 488 364 q 409 78 488 169 q 214 -14 330 -14 q 80 35 134 -14 q 25 150 25 84 l 26 170 l 118 191 l 122 180 q 106 129 106 152 q 140 47 106 78 q 224 16 174 16 q 351 78 300 16 q 403 248 403 141 q 376 458 403 326 q 349 644 349 591 q 353 693 349 674 q 187 621 245 674 q 129 501 129 568 q 229 399 129 410 l 227 376 q 189 372 197 372 q 94 409 130 372 q 58 497 58 445 q 137 642 58 577 q 359 725 216 707 q 534 913 401 843 l 545 892 q 444 729 460 823 z "},"":{"ha":478,"x_min":-107,"x_max":505,"o":"m 151 243 q 285 313 224 313 q 372 277 340 313 q 404 184 404 241 q 353 44 404 102 q 243 -14 302 -14 q 151 14 193 -14 l 151 -245 q 109 -371 151 -323 q -1 -418 66 -418 q -107 -359 -69 -418 l -52 -304 l -40 -314 q -45 -334 -45 -326 q -28 -377 -45 -359 q 14 -396 -12 -396 q 65 -363 47 -396 q 83 -273 83 -330 l 83 201 q 18 93 54 136 l -3 111 l 15 138 q 41 180 29 159 q 68 239 52 202 q 83 281 83 275 l 83 578 l 151 647 l 151 243 m 151 49 q 235 16 187 16 q 309 53 278 16 q 339 146 339 90 q 314 227 339 198 q 250 256 290 256 q 151 199 194 256 l 151 49 m 505 106 q 415 11 456 38 q 307 -26 373 -16 l 301 -9 q 395 29 357 5 q 485 123 433 53 l 505 106 z "},"":{"ha":854,"x_min":90,"x_max":764,"o":"m 764 297 l 90 297 l 90 343 l 764 343 l 764 297 z "},"":{"ha":854,"x_min":123,"x_max":732,"o":"m 732 591 l 458 319 l 728 50 l 696 18 l 428 288 l 155 18 l 123 50 l 395 319 l 123 591 l 154 624 l 428 351 l 700 624 l 732 591 z "},"":{"ha":334,"x_min":57,"x_max":197,"o":"m 197 322 l 139 296 l 139 576 q 69 554 108 561 l 57 575 q 180 668 145 595 l 197 659 l 197 322 z "},"":{"ha":334,"x_min":36,"x_max":304,"o":"m 304 387 q 189 297 273 297 q 132 313 161 297 q 94 329 103 329 q 66 300 71 329 l 40 300 l 40 306 q 60 370 40 338 q 130 435 81 401 q 210 503 195 481 q 224 546 224 524 q 202 598 224 576 q 147 621 180 621 q 97 604 117 621 q 78 559 78 587 q 113 518 78 518 q 142 550 142 518 l 142 553 l 163 559 q 172 530 172 546 q 153 494 172 508 q 106 481 134 481 q 56 499 75 481 q 36 545 36 517 q 74 619 36 588 q 168 650 113 650 q 251 624 216 650 q 285 559 285 597 q 269 511 285 535 q 182 441 254 487 q 89 358 111 395 q 127 367 113 367 q 179 357 149 367 q 221 347 210 347 q 279 397 254 347 l 304 387 z "},"":{"ha":334,"x_min":32,"x_max":301,"o":"m 225 486 q 301 408 301 463 q 255 333 301 367 q 147 300 209 300 q 64 324 96 300 q 32 379 32 348 q 51 419 32 402 q 97 436 70 436 q 167 392 143 436 l 146 379 q 113 399 132 399 q 89 390 99 399 q 79 367 79 380 q 100 335 79 348 q 150 322 121 322 q 214 346 187 322 q 240 403 240 370 q 219 452 240 433 q 183 471 199 471 q 168 465 180 471 q 146 460 156 460 q 125 471 125 460 q 178 489 125 486 q 229 559 229 515 q 209 603 229 586 q 157 621 189 621 q 107 606 126 621 q 89 570 89 591 q 119 539 89 539 q 154 566 144 539 l 178 557 q 109 501 158 501 q 64 515 81 501 q 47 553 47 530 q 86 621 47 592 q 178 650 125 650 q 255 628 224 650 q 285 572 285 606 q 225 486 285 526 z "},"":{"ha":796,"x_min":57,"x_max":767,"o":"m 197 322 l 139 296 l 139 576 q 69 554 108 561 l 57 575 q 180 668 145 595 l 197 659 l 197 322 m 695 657 l 146 -16 l 99 -16 l 646 657 l 695 657 m 767 78 q 652 -12 735 -12 q 594 3 623 -12 q 557 20 566 20 q 529 -9 534 20 l 503 -9 l 503 -3 q 523 61 503 29 q 592 126 543 92 q 672 194 658 172 q 686 237 686 215 q 664 289 686 267 q 610 311 642 311 q 560 295 579 311 q 541 250 541 278 q 575 209 541 209 q 604 241 604 209 l 604 243 l 625 250 q 635 221 635 237 q 616 185 635 199 q 568 172 597 172 q 518 190 538 172 q 498 235 498 208 q 537 310 498 279 q 631 340 575 340 q 713 314 679 340 q 747 250 747 288 q 732 202 747 226 q 645 132 716 178 q 551 49 574 86 q 590 58 575 58 q 642 47 612 58 q 684 38 672 38 q 742 88 717 38 l 767 78 z "},"":{"ha":797,"x_min":57,"x_max":777,"o":"m 197 322 l 139 296 l 139 576 q 69 554 108 561 l 57 575 q 180 668 145 595 l 197 659 l 197 322 m 695 657 l 146 -16 l 99 -16 l 646 657 l 695 657 m 777 142 q 699 74 762 89 l 699 9 l 640 -19 l 640 79 q 555 92 575 92 q 490 68 516 92 l 475 80 q 610 326 569 199 q 692 368 650 345 l 697 353 q 646 264 675 307 l 699 290 l 699 112 q 754 151 733 113 l 777 142 m 640 121 l 640 256 l 543 125 q 578 130 571 130 q 640 121 597 130 z "},"":{"ha":797,"x_min":32,"x_max":777,"o":"m 225 486 q 301 408 301 463 q 255 333 301 367 q 147 300 209 300 q 64 324 96 300 q 32 379 32 348 q 51 419 32 402 q 97 436 70 436 q 167 392 143 436 l 146 379 q 113 399 132 399 q 89 390 99 399 q 79 367 79 380 q 100 335 79 348 q 150 322 121 322 q 214 346 187 322 q 240 403 240 370 q 219 452 240 433 q 183 471 199 471 q 168 465 180 471 q 146 460 156 460 q 125 471 125 460 q 178 489 125 486 q 229 559 229 515 q 209 603 229 586 q 157 621 189 621 q 107 606 126 621 q 89 570 89 591 q 119 539 89 539 q 154 566 144 539 l 178 557 q 109 501 158 501 q 64 515 81 501 q 47 553 47 530 q 86 621 47 592 q 178 650 125 650 q 255 628 224 650 q 285 572 285 606 q 225 486 285 526 m 695 657 l 146 -16 l 99 -16 l 646 657 l 695 657 m 777 142 q 699 74 762 89 l 699 9 l 640 -19 l 640 79 q 555 92 575 92 q 490 68 516 92 l 475 80 q 610 326 569 199 q 692 368 650 345 l 697 353 q 646 264 675 307 l 699 290 l 699 112 q 754 151 733 113 l 777 142 m 640 121 l 640 256 l 543 125 q 578 130 571 130 q 640 121 597 130 z "},"":{"ha":334,"x_min":17,"x_max":318,"o":"m 318 457 q 240 389 304 404 l 240 323 l 182 296 l 182 393 q 97 407 117 407 q 32 383 58 407 l 17 395 q 151 640 111 514 q 233 682 192 659 l 239 668 q 187 579 217 621 l 240 604 l 240 427 q 296 465 275 427 l 318 457 m 182 436 l 182 571 l 85 440 q 119 444 113 444 q 182 436 139 444 z "},"":{"ha":854,"x_min":140,"x_max":714,"o":"m 714 61 l 688 35 l 610 111 q 428 45 524 45 q 245 113 330 45 l 167 35 l 140 61 l 220 139 q 151 321 151 222 q 220 503 151 420 l 140 579 l 168 607 l 245 529 q 428 597 330 597 q 610 529 524 597 l 688 607 l 714 579 l 636 503 q 705 321 705 418 q 637 138 705 224 l 714 61 m 428 83 q 595 148 527 83 q 664 321 664 213 q 595 489 664 419 q 429 559 526 559 q 262 490 331 559 q 193 321 193 420 q 261 148 193 213 q 428 83 330 83 z "}}}
